<?xml version="1.0" encoding="utf-8" standalone="no"?>
<!DOCTYPE svg PUBLIC "-//W3C//DTD SVG 1.1//EN"
  "http://www.w3.org/Graphics/SVG/1.1/DTD/svg11.dtd">
<svg xmlns:xlink="http://www.w3.org/1999/xlink" width="947.689028pt" height="423.046562pt" viewBox="0 0 947.689028 423.046562" xmlns="http://www.w3.org/2000/svg" version="1.1">
 <metadata>
  <rdf:RDF xmlns:dc="http://purl.org/dc/elements/1.1/" xmlns:cc="http://creativecommons.org/ns#" xmlns:rdf="http://www.w3.org/1999/02/22-rdf-syntax-ns#">
   <cc:Work>
    <dc:type rdf:resource="http://purl.org/dc/dcmitype/StillImage"/>
    <dc:date>2026-03-15T17:18:30.168673</dc:date>
    <dc:format>image/svg+xml</dc:format>
    <dc:creator>
     <cc:Agent>
      <dc:title>Matplotlib v3.10.8, https://matplotlib.org/</dc:title>
     </cc:Agent>
    </dc:creator>
   </cc:Work>
  </rdf:RDF>
 </metadata>
 <defs>
  <style type="text/css">*{stroke-linejoin: round; stroke-linecap: butt}</style>
 </defs>
 <g id="figure_1">
  <g id="patch_1">
   <path d="M 0 423.046562 
L 947.689028 423.046562 
L 947.689028 0 
L 0 0 
z
" style="fill: #ffffff"/>
  </g>
  <g id="axes_1">
   <g id="patch_2">
    <path d="M 185.9 60.13125 
C 161.131349 60.13125 136.782695 66.568219 115.250027 78.808738 
C 93.717359 91.049256 75.730928 108.678205 63.060658 129.960834 
C 50.390389 151.243464 43.465975 175.458006 42.968803 200.221667 
C 42.471631 224.985328 48.418562 249.458284 60.224397 271.232312 
L 185.9 203.09125 
z
" style="fill: #4ecdc4"/>
   </g>
   <g id="patch_3">
    <path d="M 60.224389 271.232303 
C 71.104359 291.298727 86.633721 308.470577 105.508961 321.306485 
C 124.384202 334.142393 146.061991 342.272892 168.722819 345.015547 
L 185.9 203.09125 
z
" style="fill: #ff6b6b"/>
   </g>
   <g id="patch_4">
    <path d="M 168.722819 345.015547 
C 196.456086 348.37212 224.574268 343.527221 249.58492 331.082627 
C 274.595573 318.638032 295.418459 299.131184 309.467147 274.985068 
L 185.9 203.09125 
z
" style="fill: #98d8c8"/>
   </g>
   <g id="patch_5">
    <path d="M 309.467147 274.985068 
C 320.093445 256.721172 326.539488 236.326513 328.340035 215.2731 
C 330.140582 194.219688 327.251203 173.02657 319.880486 153.223525 
L 185.9 203.09125 
z
" style="fill: #f7dc6f"/>
   </g>
   <g id="patch_6">
    <path d="M 319.880486 153.223525 
C 310.306158 127.500016 293.523243 105.070003 271.546619 88.62633 
C 249.569996 72.182656 223.315802 62.410809 195.935999 60.483955 
L 185.9 203.09125 
z
" style="fill: #45b7d1"/>
   </g>
   <g id="patch_7">
    <path d="M 195.935999 60.483955 
C 194.266046 60.366432 192.594157 60.278247 190.921107 60.219452 
C 189.248057 60.160656 187.574103 60.13125 185.90002 60.13125 
L 185.9 203.09125 
z
" style="fill: #ffa07a"/>
   </g>
   <g id="matplotlib.axis_1"/>
   <g id="matplotlib.axis_2"/>
   <g id="text_1">
    <!-- 地点 -->
    <g transform="translate(30.776729 125.40169) scale(0.1 -0.1)">
     <defs>
      <path id="MicrosoftYaHei-5730" d="M 3975 5303 
L 4463 5303 
L 4463 3688 
L 5981 4147 
Q 5944 2916 5906 2134 
Q 5869 1291 5231 1284 
Q 4944 1278 4669 1284 
Q 4631 1516 4575 1803 
Q 4875 1766 5094 1766 
Q 5419 1759 5431 2241 
Q 5469 2809 5475 3534 
L 4463 3219 
L 4463 509 
L 3975 509 
L 3975 3069 
L 3031 2775 
L 3031 353 
Q 3031 -134 3563 -134 
L 5094 -134 
Q 5669 -134 5731 328 
Q 5806 728 5856 1259 
Q 6106 1159 6375 1078 
Q 6288 478 6206 103 
Q 6056 -609 5225 -609 
L 3444 -609 
Q 2544 -609 2544 272 
L 2544 2622 
L 2075 2478 
L 1994 2941 
L 2544 3106 
L 2544 4566 
L 3031 4566 
L 3031 3253 
L 3975 3538 
L 3975 5303 
z
M 44 303 
Q 491 447 944 597 
L 944 3091 
L 138 3091 
L 138 3528 
L 944 3528 
L 944 5272 
L 1406 5272 
L 1406 3528 
L 2131 3528 
L 2131 3091 
L 1406 3091 
L 1406 753 
Q 1803 891 2206 1034 
Q 2219 772 2250 572 
Q 1225 203 219 -178 
L 44 303 
z
" transform="scale(0.015625)"/>
      <path id="MicrosoftYaHei-70b9" d="M 900 3378 
L 2863 3378 
L 2863 5341 
L 3388 5341 
L 3388 4591 
L 6181 4591 
L 6181 4141 
L 3388 4141 
L 3388 3378 
L 5600 3378 
L 5600 991 
L 5088 991 
L 5088 1253 
L 1413 1253 
L 1413 991 
L 900 991 
L 900 3378 
z
M 5088 2928 
L 1413 2928 
L 1413 1703 
L 5088 1703 
L 5088 2928 
z
M 5425 847 
Q 5925 91 6225 -516 
L 5750 -772 
Q 5438 -134 4994 622 
L 5425 847 
z
M 1369 553 
Q 894 -303 531 -791 
L 100 -484 
Q 506 53 931 803 
L 1369 553 
z
M 2413 828 
Q 2700 197 2913 -503 
L 2406 -678 
Q 2213 3 1963 666 
L 2413 828 
z
M 3906 872 
Q 4206 253 4450 -422 
L 3956 -616 
Q 3781 -53 3450 697 
L 3906 872 
z
" transform="scale(0.015625)"/>
     </defs>
     <use xlink:href="#MicrosoftYaHei-5730"/>
     <use xlink:href="#MicrosoftYaHei-70b9" transform="translate(100 0)"/>
    </g>
   </g>
   <g id="text_2">
    <!-- 32.9% -->
    <g transform="translate(97.74796 161.966902) scale(0.1 -0.1)">
     <defs>
      <path id="MicrosoftYaHei-33" d="M 447 809 
Q 944 425 1569 425 
Q 2069 425 2361 670 
Q 2653 916 2653 1328 
Q 2653 2247 1338 2247 
L 934 2247 
L 934 2753 
L 1319 2753 
Q 2484 2753 2484 3616 
Q 2484 4413 1594 4413 
Q 1084 4413 634 4069 
L 634 4647 
Q 1109 4922 1744 4922 
Q 2363 4922 2738 4598 
Q 3113 4275 3113 3759 
Q 3113 2809 2144 2538 
L 2144 2525 
Q 2669 2469 2973 2155 
Q 3278 1841 3278 1372 
Q 3278 719 2808 319 
Q 2338 -81 1556 -81 
Q 869 -81 447 175 
L 447 809 
z
" transform="scale(0.015625)"/>
      <path id="MicrosoftYaHei-32" d="M 2666 3572 
Q 2666 3963 2419 4186 
Q 2172 4409 1747 4409 
Q 1447 4409 1140 4256 
Q 834 4103 569 3819 
L 569 4413 
Q 806 4659 1107 4790 
Q 1409 4922 1816 4922 
Q 2472 4922 2872 4570 
Q 3272 4219 3272 3619 
Q 3272 3084 3026 2693 
Q 2781 2303 2188 1894 
Q 1581 1475 1376 1294 
Q 1172 1113 1090 947 
Q 1009 781 1009 544 
L 3416 544 
L 3416 0 
L 372 0 
L 372 241 
Q 372 659 486 951 
Q 600 1244 862 1520 
Q 1125 1797 1681 2184 
Q 2250 2584 2458 2886 
Q 2666 3188 2666 3572 
z
" transform="scale(0.015625)"/>
      <path id="MicrosoftYaHei-2e" d="M 372 322 
Q 372 491 487 606 
Q 603 722 775 722 
Q 950 722 1065 605 
Q 1181 488 1181 322 
Q 1181 159 1065 42 
Q 950 -75 772 -75 
Q 600 -75 486 42 
Q 372 159 372 322 
z
" transform="scale(0.015625)"/>
      <path id="MicrosoftYaHei-39" d="M 578 656 
Q 978 425 1441 425 
Q 2091 425 2448 937 
Q 2806 1450 2806 2394 
Q 2800 2388 2794 2394 
Q 2475 1788 1722 1788 
Q 1113 1788 713 2206 
Q 313 2625 313 3294 
Q 313 4006 750 4464 
Q 1188 4922 1884 4922 
Q 2606 4922 3012 4355 
Q 3419 3788 3419 2703 
Q 3419 1363 2894 641 
Q 2369 -81 1441 -81 
Q 931 -81 578 84 
L 578 656 
z
M 931 3372 
Q 931 2884 1181 2598 
Q 1431 2313 1872 2313 
Q 2253 2313 2512 2573 
Q 2772 2834 2772 3206 
Q 2772 3728 2514 4070 
Q 2256 4413 1834 4413 
Q 1444 4413 1187 4116 
Q 931 3819 931 3372 
z
" transform="scale(0.015625)"/>
      <path id="MicrosoftYaHei-25" d="M 272 3619 
Q 272 4213 589 4563 
Q 906 4913 1444 4913 
Q 1959 4913 2248 4591 
Q 2538 4269 2538 3694 
Q 2538 3122 2219 2765 
Q 1900 2409 1372 2409 
Q 872 2409 572 2740 
Q 272 3072 272 3619 
z
M 753 3650 
Q 753 3247 928 3028 
Q 1103 2809 1406 2809 
Q 1719 2809 1889 3036 
Q 2059 3263 2059 3675 
Q 2059 4078 1892 4298 
Q 1725 4519 1422 4519 
Q 1113 4519 933 4289 
Q 753 4059 753 3650 
z
M 4647 4841 
L 1538 -31 
L 1016 -31 
L 4125 4841 
L 4647 4841 
z
M 3172 1134 
Q 3172 1728 3489 2083 
Q 3806 2438 4341 2438 
Q 4853 2438 5143 2114 
Q 5434 1791 5434 1203 
Q 5434 634 5112 279 
Q 4791 -75 4272 -75 
Q 3769 -75 3470 261 
Q 3172 597 3172 1134 
z
M 3650 1163 
Q 3650 769 3825 548 
Q 4000 328 4303 328 
Q 4616 328 4786 556 
Q 4956 784 4956 1194 
Q 4956 1600 4786 1815 
Q 4616 2031 4319 2031 
Q 4000 2031 3825 1801 
Q 3650 1572 3650 1163 
z
" transform="scale(0.015625)"/>
     </defs>
     <use xlink:href="#MicrosoftYaHei-33"/>
     <use xlink:href="#MicrosoftYaHei-32" transform="translate(58.642578 0)"/>
     <use xlink:href="#MicrosoftYaHei-2e" transform="translate(117.285156 0)"/>
     <use xlink:href="#MicrosoftYaHei-39" transform="translate(141.357422 0)"/>
     <use xlink:href="#MicrosoftYaHei-25" transform="translate(200 0)"/>
    </g>
   </g>
   <g id="text_3">
    <!-- 人物 -->
    <g transform="translate(77.469856 335.881917) scale(0.1 -0.1)">
     <defs>
      <path id="MicrosoftYaHei-4eba" d="M 100 -303 
Q 2825 1272 2981 5222 
L 3531 5222 
Q 3497 4553 3400 3947 
Q 4175 822 6313 -166 
Q 6050 -453 5850 -709 
Q 3994 341 3203 3006 
Q 2519 431 494 -778 
Q 325 -547 100 -303 
z
" transform="scale(0.015625)"/>
      <path id="MicrosoftYaHei-7269" d="M 2131 2866 
Q 2750 3816 3263 5341 
L 3719 5203 
Q 3541 4706 3363 4278 
L 6075 4278 
Q 5950 1759 5869 422 
Q 5800 -622 4869 -622 
Q 4519 -622 4044 -603 
Q 4013 -372 3956 -72 
Q 4500 -134 4819 -134 
Q 5325 -134 5375 441 
Q 5488 1759 5575 3834 
L 5097 3834 
Q 4934 2241 4569 1322 
Q 4069 134 2869 -716 
Q 2731 -522 2550 -334 
Q 3719 491 4169 1559 
Q 4531 2438 4634 3834 
L 4078 3834 
Q 3909 2641 3575 1916 
Q 3163 1097 2444 447 
Q 2288 647 2119 816 
Q 2831 1434 3175 2116 
Q 3509 2809 3619 3834 
L 3169 3834 
Q 2850 3125 2531 2628 
Q 2375 2734 2131 2866 
z
M 94 1584 
Q 669 1775 1288 1991 
L 1288 3466 
L 722 3466 
Q 597 2872 419 2378 
Q 219 2522 13 2653 
Q 363 3509 456 4709 
L 906 4634 
Q 863 4244 800 3884 
L 1288 3884 
L 1288 5291 
L 1756 5291 
L 1756 3884 
L 2375 3884 
L 2375 3466 
L 1756 3466 
L 1756 2156 
Q 2063 2269 2381 2384 
Q 2413 2109 2450 1909 
Q 2141 1797 1756 1653 
L 1756 -834 
L 1288 -834 
L 1288 1475 
Q 788 1288 188 1053 
L 94 1584 
z
" transform="scale(0.015625)"/>
     </defs>
     <use xlink:href="#MicrosoftYaHei-4eba"/>
     <use xlink:href="#MicrosoftYaHei-7269" transform="translate(100 0)"/>
    </g>
   </g>
   <g id="text_4">
    <!-- 15.2% -->
    <g transform="translate(123.216939 276.774299) scale(0.1 -0.1)">
     <defs>
      <path id="MicrosoftYaHei-31" d="M 1781 0 
L 1781 4141 
Q 1638 3997 1295 3819 
Q 953 3641 663 3569 
L 663 4169 
Q 1047 4275 1484 4508 
Q 1922 4741 2156 4947 
L 2388 4947 
L 2388 0 
L 1781 0 
z
" transform="scale(0.015625)"/>
      <path id="MicrosoftYaHei-35" d="M 3294 1494 
Q 3294 784 2823 350 
Q 2353 -84 1559 -84 
Q 878 -84 544 119 
L 544 744 
Q 1034 425 1544 425 
Q 2050 425 2361 704 
Q 2672 984 2672 1447 
Q 2672 1909 2348 2167 
Q 2025 2425 1434 2425 
Q 978 2425 613 2384 
L 791 4841 
L 3053 4841 
L 3053 4303 
L 1306 4303 
L 1206 2931 
L 1647 2950 
Q 2416 2950 2855 2567 
Q 3294 2184 3294 1494 
z
" transform="scale(0.015625)"/>
     </defs>
     <use xlink:href="#MicrosoftYaHei-31"/>
     <use xlink:href="#MicrosoftYaHei-35" transform="translate(58.642578 0)"/>
     <use xlink:href="#MicrosoftYaHei-2e" transform="translate(117.285156 0)"/>
     <use xlink:href="#MicrosoftYaHei-32" transform="translate(141.357422 0)"/>
     <use xlink:href="#MicrosoftYaHei-25" transform="translate(200 0)"/>
    </g>
   </g>
   <g id="text_5">
    <!-- 朝代 -->
    <g transform="translate(255.953482 346.635636) scale(0.1 -0.1)">
     <defs>
      <path id="MicrosoftYaHei-671d" d="M 3663 4978 
L 5950 4978 
L 5950 -78 
Q 5950 -759 5269 -759 
Q 4925 -759 4494 -741 
Q 4463 -503 4394 -259 
Q 4838 -303 5138 -303 
Q 5488 -303 5488 -28 
L 5488 1291 
L 4078 1291 
Q 4025 66 3100 -853 
Q 2956 -666 2750 -441 
Q 3331 128 3494 697 
Q 3663 1216 3663 2497 
L 3663 4978 
z
M 138 697 
L 1494 697 
L 1494 1366 
L 863 1366 
L 863 1178 
L 425 1178 
L 425 3728 
L 1494 3728 
L 1494 4284 
L 188 4284 
L 188 4709 
L 1494 4709 
L 1494 5341 
L 1956 5341 
L 1956 4709 
L 3250 4709 
L 3250 4284 
L 1956 4284 
L 1956 3728 
L 3013 3728 
L 3013 1178 
L 2575 1178 
L 2575 1366 
L 1956 1366 
L 1956 697 
L 3163 697 
L 3163 272 
L 1956 272 
L 1956 -841 
L 1494 -841 
L 1494 272 
L 138 272 
L 138 697 
z
M 4106 1716 
L 5488 1716 
L 5488 2928 
L 4125 2928 
Q 4125 2491 4106 1716 
z
M 5488 4541 
L 4125 4541 
L 4125 3353 
L 5488 3353 
L 5488 4541 
z
M 863 1766 
L 2575 1766 
L 2575 2353 
L 863 2353 
L 863 1766 
z
M 2575 3328 
L 863 3328 
L 863 2741 
L 2575 2741 
L 2575 3328 
z
" transform="scale(0.015625)"/>
      <path id="MicrosoftYaHei-4ee3" d="M 1850 3141 
L 3328 3303 
Q 3253 4097 3225 5284 
L 3769 5284 
Q 3756 4350 3847 3359 
L 6138 3609 
L 6194 3147 
L 3897 2894 
Q 4250 306 5256 -209 
Q 5531 -322 5613 -28 
Q 5731 416 5813 978 
Q 6075 866 6313 797 
Q 6219 191 6088 -278 
Q 5919 -822 5419 -809 
Q 4881 -791 4394 -166 
Q 3669 678 3384 2838 
L 1925 2678 
L 1850 3141 
z
M 38 2322 
Q 1013 3634 1581 5322 
L 2081 5147 
Q 1803 4419 1500 3794 
L 1500 -841 
L 988 -841 
L 988 2834 
Q 631 2238 250 1759 
Q 163 2016 38 2322 
z
M 4344 4791 
L 4669 5122 
Q 5219 4703 5794 4191 
L 5413 3803 
Q 4888 4341 4344 4791 
z
" transform="scale(0.015625)"/>
     </defs>
     <use xlink:href="#MicrosoftYaHei-671d"/>
     <use xlink:href="#MicrosoftYaHei-4ee3" transform="translate(100 0)"/>
    </g>
   </g>
   <g id="text_6">
    <!-- 18.5% -->
    <g transform="translate(209.662553 282.639963) scale(0.1 -0.1)">
     <defs>
      <path id="MicrosoftYaHei-38" d="M 306 1350 
Q 306 1769 556 2122 
Q 806 2475 1200 2625 
Q 884 2803 700 3081 
Q 516 3359 516 3684 
Q 516 4028 692 4312 
Q 869 4597 1183 4759 
Q 1497 4922 1875 4922 
Q 2256 4922 2572 4761 
Q 2888 4600 3063 4315 
Q 3238 4031 3238 3684 
Q 3238 3366 3058 3086 
Q 2878 2806 2559 2625 
Q 2953 2472 3200 2119 
Q 3447 1766 3447 1350 
Q 3447 938 3250 611 
Q 3053 284 2690 103 
Q 2328 -78 1875 -78 
Q 1425 -78 1065 103 
Q 706 284 506 612 
Q 306 941 306 1350 
z
M 906 1378 
Q 906 947 1172 687 
Q 1438 428 1878 428 
Q 2309 428 2582 692 
Q 2856 956 2856 1378 
Q 2856 1778 2579 2051 
Q 2303 2325 1878 2325 
Q 1456 2325 1181 2058 
Q 906 1791 906 1378 
z
M 1081 3634 
Q 1081 3309 1312 3076 
Q 1544 2844 1878 2844 
Q 2206 2844 2445 3078 
Q 2684 3313 2684 3634 
Q 2684 3963 2454 4191 
Q 2225 4419 1878 4419 
Q 1534 4419 1307 4195 
Q 1081 3972 1081 3634 
z
" transform="scale(0.015625)"/>
     </defs>
     <use xlink:href="#MicrosoftYaHei-31"/>
     <use xlink:href="#MicrosoftYaHei-38" transform="translate(58.642578 0)"/>
     <use xlink:href="#MicrosoftYaHei-2e" transform="translate(117.285156 0)"/>
     <use xlink:href="#MicrosoftYaHei-35" transform="translate(141.357422 0)"/>
     <use xlink:href="#MicrosoftYaHei-25" transform="translate(200 0)"/>
    </g>
   </g>
   <g id="text_7">
    <!-- 文化要素 -->
    <g transform="translate(342.584047 219.245116) scale(0.1 -0.1)">
     <defs>
      <path id="MicrosoftYaHei-6587" d="M 194 4241 
L 3194 4241 
Q 2878 4841 2700 5116 
L 3181 5341 
Q 3356 5072 3706 4466 
L 3256 4241 
L 6194 4241 
L 6194 3778 
L 5041 3778 
Q 4706 1994 3603 909 
Q 4434 303 6244 -178 
Q 5956 -503 5806 -722 
Q 4044 -113 3203 553 
Q 2359 -103 506 -772 
Q 344 -553 131 -284 
Q 1919 253 2822 913 
Q 1681 2131 1372 3778 
L 194 3778 
L 194 4241 
z
M 4506 3778 
L 1872 3778 
Q 2153 2241 3216 1238 
Q 4231 2181 4506 3778 
z
" transform="scale(0.015625)"/>
      <path id="MicrosoftYaHei-5316" d="M 1844 1453 
Q 2663 1834 3375 2331 
L 3375 5197 
L 3913 5197 
L 3913 2734 
Q 4869 3506 5613 4516 
L 6069 4184 
Q 5159 2975 3913 2069 
L 3913 303 
Q 3913 -122 4363 -122 
L 5156 -122 
Q 5581 -122 5650 284 
Q 5738 709 5763 1266 
Q 6025 1166 6313 1084 
Q 6263 559 6181 122 
Q 6063 -597 5281 -597 
L 4225 -597 
Q 3375 -597 3375 241 
L 3375 1703 
Q 2791 1328 2144 1016 
Q 2013 1222 1844 1453 
z
M 88 2222 
Q 1175 3666 1688 5291 
L 2231 5134 
Q 1934 4359 1588 3675 
L 1588 -797 
L 1063 -797 
L 1063 2734 
Q 716 2172 325 1678 
Q 219 1947 88 2222 
z
" transform="scale(0.015625)"/>
      <path id="MicrosoftYaHei-8981" d="M 613 3978 
L 2181 3978 
L 2181 4659 
L 313 4659 
L 313 5084 
L 6088 5084 
L 6088 4659 
L 4213 4659 
L 4213 3978 
L 5781 3978 
L 5781 2116 
L 5319 2116 
L 5319 2353 
L 1075 2353 
L 1075 2116 
L 613 2116 
L 613 3978 
z
M 94 1741 
L 1959 1741 
Q 2150 2038 2319 2341 
L 2800 2147 
Q 2663 1941 2528 1741 
L 6300 1741 
L 6300 1316 
L 4856 1316 
Q 4497 681 3925 247 
Q 4853 -31 5875 -347 
L 5600 -834 
Q 4550 -469 3394 -81 
Q 2300 -650 531 -872 
Q 419 -641 288 -391 
Q 1809 -253 2750 134 
Q 1991 388 1188 653 
Q 1447 981 1675 1316 
L 94 1316 
L 94 1741 
z
M 1900 853 
Q 2584 650 3328 428 
Q 3938 797 4269 1316 
L 2231 1316 
Q 2066 1078 1900 853 
z
M 2644 2753 
L 3750 2753 
L 3750 3578 
L 2644 3578 
L 2644 2753 
z
M 5319 3578 
L 4213 3578 
L 4213 2753 
L 5319 2753 
L 5319 3578 
z
M 1075 2753 
L 2181 2753 
L 2181 3578 
L 1075 3578 
L 1075 2753 
z
M 2644 3978 
L 3750 3978 
L 3750 4659 
L 2644 4659 
L 2644 3978 
z
" transform="scale(0.015625)"/>
      <path id="MicrosoftYaHei-7d20" d="M 4669 2009 
Q 5413 1391 5988 816 
Q 5863 716 5619 466 
Q 5431 666 5238 863 
Q 4294 819 3538 781 
L 3538 -3 
Q 3538 -747 2756 -747 
Q 2456 -747 2013 -734 
Q 1988 -522 1938 -228 
Q 2406 -278 2656 -278 
Q 3050 -278 3050 47 
L 3050 756 
Q 2219 716 1625 684 
Q 1206 659 900 603 
L 644 1097 
Q 1125 1191 1475 1322 
Q 2172 1591 2831 1881 
Q 2069 1825 1456 1772 
Q 1219 1747 981 1709 
L 763 2172 
Q 1088 2241 1338 2359 
Q 1738 2566 2103 2778 
L 188 2778 
L 188 3172 
L 2950 3172 
L 2950 3603 
L 775 3603 
L 775 3997 
L 2950 3997 
L 2950 4416 
L 425 4416 
L 425 4809 
L 2950 4809 
L 2950 5347 
L 3450 5347 
L 3450 4809 
L 6000 4809 
L 6000 4416 
L 3450 4416 
L 3450 3997 
L 5563 3997 
L 5563 3603 
L 3450 3603 
L 3450 3172 
L 6238 3172 
L 6238 2778 
L 2859 2778 
Q 2231 2434 1569 2122 
Q 2522 2175 3634 2247 
Q 4131 2484 4606 2734 
L 4956 2447 
Q 3356 1666 1775 1053 
Q 3347 1119 4888 1206 
Q 4625 1463 4344 1716 
L 4669 2009 
z
M 1819 559 
L 2131 209 
Q 1181 -372 475 -716 
Q 381 -553 219 -316 
Q 906 -16 1819 559 
z
M 4113 253 
L 4388 591 
Q 5056 253 6019 -291 
L 5706 -691 
Q 4813 -116 4113 253 
z
" transform="scale(0.015625)"/>
     </defs>
     <use xlink:href="#MicrosoftYaHei-6587"/>
     <use xlink:href="#MicrosoftYaHei-5316" transform="translate(100 0)"/>
     <use xlink:href="#MicrosoftYaHei-8981" transform="translate(200 0)"/>
     <use xlink:href="#MicrosoftYaHei-7d20" transform="translate(300 0)"/>
    </g>
   </g>
   <g id="text_8">
    <!-- 14.1% -->
    <g transform="translate(256.915588 213.154225) scale(0.1 -0.1)">
     <defs>
      <path id="MicrosoftYaHei-34" d="M 2906 4841 
L 2906 1644 
L 3631 1644 
L 3631 1138 
L 2906 1138 
L 2906 0 
L 2313 0 
L 2313 1138 
L 53 1138 
L 53 1616 
Q 656 2294 1265 3178 
Q 1875 4063 2272 4841 
L 2906 4841 
z
M 741 1644 
L 2313 1644 
L 2313 3950 
Q 1988 3366 1616 2817 
Q 1244 2269 741 1644 
z
" transform="scale(0.015625)"/>
     </defs>
     <use xlink:href="#MicrosoftYaHei-31"/>
     <use xlink:href="#MicrosoftYaHei-34" transform="translate(58.642578 0)"/>
     <use xlink:href="#MicrosoftYaHei-2e" transform="translate(117.285156 0)"/>
     <use xlink:href="#MicrosoftYaHei-31" transform="translate(141.357422 0)"/>
     <use xlink:href="#MicrosoftYaHei-25" transform="translate(200 0)"/>
    </g>
   </g>
   <g id="text_9">
    <!-- 建筑 -->
    <g transform="translate(280.111226 79.933702) scale(0.1 -0.1)">
     <defs>
      <path id="MicrosoftYaHei-5efa" d="M 2075 1009 
L 3675 1009 
L 3675 1553 
L 2288 1553 
L 2288 1928 
L 3675 1928 
L 3675 2472 
L 2375 2472 
L 2375 2847 
L 3675 2847 
L 3675 3391 
L 2050 3391 
L 2050 3778 
L 3675 3778 
L 3675 4322 
L 2375 4322 
L 2375 4697 
L 3675 4697 
L 3675 5309 
L 4138 5309 
L 4138 4697 
L 5588 4697 
L 5588 3778 
L 6244 3778 
L 6244 3391 
L 5588 3391 
L 5588 2303 
L 5138 2303 
L 5138 2472 
L 4138 2472 
L 4138 1928 
L 5713 1928 
L 5713 1553 
L 4138 1553 
L 4138 1009 
L 6000 1009 
L 6000 634 
L 4138 634 
L 4138 -9 
L 3675 -9 
L 3675 634 
L 2075 634 
L 2075 1009 
z
M 600 2066 
Q 788 1303 1125 813 
Q 1459 1500 1544 2397 
L 294 2397 
L 294 2853 
L 1444 4272 
L 169 4272 
L 169 4697 
L 2019 4697 
L 2019 4272 
L 844 2822 
L 2013 2822 
L 2013 2453 
Q 1897 1294 1447 444 
Q 2128 -147 3563 -153 
Q 4750 -178 6319 -122 
Q 6213 -378 6113 -616 
Q 4681 -609 3344 -603 
Q 1950 -603 1206 47 
Q 853 -466 350 -847 
Q 250 -666 94 -441 
Q 563 -84 881 391 
Q 463 922 188 1909 
L 600 2066 
z
M 4138 2847 
L 5138 2847 
L 5138 3391 
L 4138 3391 
L 4138 2847 
z
M 5138 4322 
L 4138 4322 
L 4138 3778 
L 5138 3778 
L 5138 4322 
z
" transform="scale(0.015625)"/>
      <path id="MicrosoftYaHei-7b51" d="M 4875 2609 
L 3188 2609 
L 3188 1641 
Q 3188 153 2288 -834 
Q 2119 -684 1888 -509 
Q 2725 391 2725 1666 
L 2725 3047 
L 5338 3047 
L 5338 91 
Q 5338 -159 5488 -159 
L 5631 -159 
Q 5756 -159 5794 109 
Q 5831 428 5869 1166 
Q 6075 1059 6319 972 
Q 6269 297 6225 -22 
Q 6163 -609 5694 -609 
L 5413 -609 
Q 4875 -609 4875 91 
L 4875 2609 
z
M 206 497 
Q 666 588 1200 700 
L 1200 2528 
L 331 2528 
L 331 2953 
L 2475 2953 
L 2475 2528 
L 1656 2528 
L 1656 800 
Q 2047 888 2475 984 
Q 2444 753 2425 522 
Q 1406 278 281 -3 
L 206 497 
z
M 4319 5322 
Q 4209 5034 4091 4766 
L 6138 4766 
L 6138 4328 
L 3878 4328 
Q 3569 3738 3188 3259 
Q 2969 3453 2806 3584 
Q 3419 4322 3788 5322 
L 4319 5322 
z
M 1763 5328 
Q 1650 5038 1516 4766 
L 3213 4766 
L 3213 4328 
L 1278 4328 
Q 919 3722 431 3216 
Q 231 3428 81 3566 
Q 813 4291 1231 5328 
L 1763 5328 
z
M 3331 1747 
L 3669 2053 
Q 4219 1522 4744 997 
L 4369 634 
Q 3838 1259 3331 1747 
z
M 2019 3203 
Q 1769 3597 1494 3984 
L 1863 4209 
Q 2138 3897 2431 3478 
L 2019 3203 
z
M 4850 3253 
Q 4588 3672 4344 4009 
L 4706 4234 
Q 4944 3966 5275 3509 
L 4850 3253 
z
" transform="scale(0.015625)"/>
     </defs>
     <use xlink:href="#MicrosoftYaHei-5efa"/>
     <use xlink:href="#MicrosoftYaHei-7b51" transform="translate(100 0)"/>
    </g>
   </g>
   <g id="text_10">
    <!-- 18.2% -->
    <g transform="translate(222.839504 137.166181) scale(0.1 -0.1)">
     <use xlink:href="#MicrosoftYaHei-31"/>
     <use xlink:href="#MicrosoftYaHei-38" transform="translate(58.642578 0)"/>
     <use xlink:href="#MicrosoftYaHei-2e" transform="translate(117.285156 0)"/>
     <use xlink:href="#MicrosoftYaHei-32" transform="translate(141.357422 0)"/>
     <use xlink:href="#MicrosoftYaHei-25" transform="translate(200 0)"/>
    </g>
   </g>
   <g id="text_11">
    <!-- 事件 -->
    <g transform="translate(191.423143 48.686178) scale(0.1 -0.1)">
     <defs>
      <path id="MicrosoftYaHei-4e8b" d="M 531 734 
L 2975 734 
L 2975 1203 
L 144 1203 
L 144 1591 
L 2975 1591 
L 2975 2053 
L 550 2053 
L 550 2428 
L 2975 2428 
L 2975 2853 
L 1388 2853 
L 1388 2691 
L 950 2691 
L 950 4034 
L 2975 4034 
L 2975 4447 
L 163 4447 
L 163 4834 
L 2975 4834 
L 2975 5322 
L 3438 5322 
L 3438 4834 
L 6244 4834 
L 6244 4447 
L 3438 4447 
L 3438 4034 
L 5463 4034 
L 5463 2691 
L 5025 2691 
L 5025 2853 
L 3438 2853 
L 3438 2428 
L 5600 2428 
L 5600 1591 
L 6294 1591 
L 6294 1203 
L 5600 1203 
L 5600 59 
L 5150 59 
L 5150 359 
L 3438 359 
L 3438 -9 
Q 3438 -759 2713 -766 
Q 2369 -766 1813 -753 
Q 1788 -541 1738 -234 
Q 2225 -297 2606 -297 
Q 2975 -297 2975 78 
L 2975 359 
L 531 359 
L 531 734 
z
M 3438 734 
L 5150 734 
L 5150 1203 
L 3438 1203 
L 3438 734 
z
M 5150 2053 
L 3438 2053 
L 3438 1591 
L 5150 1591 
L 5150 2053 
z
M 5025 3684 
L 3438 3684 
L 3438 3203 
L 5025 3203 
L 5025 3684 
z
M 1388 3203 
L 2975 3203 
L 2975 3684 
L 1388 3684 
L 1388 3203 
z
" transform="scale(0.015625)"/>
      <path id="MicrosoftYaHei-4ef6" d="M 1950 1816 
L 4119 1816 
L 4119 3397 
L 2928 3397 
Q 2675 2725 2375 2197 
Q 2194 2372 1963 2528 
Q 2556 3572 2838 4859 
L 3344 4716 
Q 3222 4250 3081 3834 
L 4119 3834 
L 4119 5284 
L 4619 5284 
L 4619 3834 
L 6113 3834 
L 6113 3397 
L 4619 3397 
L 4619 1816 
L 6319 1816 
L 6319 1378 
L 4619 1378 
L 4619 -809 
L 4119 -809 
L 4119 1378 
L 1950 1378 
L 1950 1816 
z
M 69 2191 
Q 931 3466 1456 5278 
L 1969 5128 
Q 1738 4400 1469 3763 
L 1469 -816 
L 975 -816 
L 975 2731 
Q 656 2141 294 1647 
Q 200 1916 69 2191 
z
" transform="scale(0.015625)"/>
     </defs>
     <use xlink:href="#MicrosoftYaHei-4e8b"/>
     <use xlink:href="#MicrosoftYaHei-4ef6" transform="translate(100 0)"/>
    </g>
   </g>
   <g id="text_12">
    <!-- 1.1% -->
    <g transform="translate(177.396217 120.122077) scale(0.1 -0.1)">
     <use xlink:href="#MicrosoftYaHei-31"/>
     <use xlink:href="#MicrosoftYaHei-2e" transform="translate(58.642578 0)"/>
     <use xlink:href="#MicrosoftYaHei-31" transform="translate(82.714844 0)"/>
     <use xlink:href="#MicrosoftYaHei-25" transform="translate(141.357422 0)"/>
    </g>
   </g>
   <g id="text_13">
    <!-- 文化实体类型分布 -->
    <g transform="translate(129.9 18.39125) scale(0.14 -0.14)">
     <defs>
      <path id="MicrosoftYaHei-Bold-6587" d="M 169 4353 
L 2781 4353 
Q 2684 4672 2519 5141 
L 3475 5334 
Q 3709 4713 3831 4353 
L 6213 4353 
L 6213 3509 
L 5284 3509 
Q 4813 2091 3925 1113 
Q 4888 447 6300 97 
Q 5781 -534 5613 -822 
Q 4184 -344 3188 441 
Q 2184 -316 725 -859 
Q 388 -316 100 47 
Q 1503 484 2450 1128 
Q 1550 2131 1175 3509 
L 169 3509 
L 169 4353 
z
M 4222 3509 
L 2141 3509 
Q 2463 2484 3184 1738 
Q 3913 2488 4222 3509 
z
" transform="scale(0.015625)"/>
      <path id="MicrosoftYaHei-Bold-5316" d="M 1625 5297 
L 2494 5009 
Q 2200 4284 1856 3641 
L 1856 -797 
L 956 -797 
L 956 2191 
Q 653 1775 325 1403 
Q 219 1991 88 2497 
Q 1063 3728 1625 5297 
z
M 5456 4447 
L 6238 3847 
Q 5306 2809 4106 1900 
L 4106 622 
Q 4106 153 4513 153 
L 4781 153 
Q 5091 153 5189 359 
Q 5288 566 5350 1597 
Q 5863 1434 6300 1322 
Q 6188 419 6105 37 
Q 6022 -344 5705 -542 
Q 5388 -741 4831 -741 
L 4294 -741 
Q 3169 -741 3169 378 
L 3169 1234 
Q 2806 994 2425 766 
Q 2225 1097 1875 1584 
Q 2553 1947 3169 2378 
L 3169 5272 
L 4106 5272 
L 4106 3100 
Q 4834 3719 5456 4447 
z
" transform="scale(0.015625)"/>
      <path id="MicrosoftYaHei-Bold-5b9e" d="M 4219 3716 
Q 4181 2422 4056 1653 
L 6238 1653 
L 6238 878 
L 3863 878 
Q 3850 841 3813 766 
Q 5019 372 6206 -66 
L 5881 -847 
Q 4619 -316 3369 153 
Q 2550 -616 863 -916 
Q 556 -384 331 -78 
Q 2338 209 2894 878 
L 169 878 
L 169 1653 
L 2144 1653 
Q 1481 2053 931 2328 
L 1319 2934 
Q 1894 2659 2638 2247 
L 2244 1653 
L 3175 1653 
Q 3331 2453 3350 3716 
L 4219 3716 
z
M 300 3078 
L 300 4703 
L 2819 4703 
Q 2700 5009 2606 5228 
L 3675 5341 
Q 3769 5084 3888 4703 
L 6094 4703 
L 6094 3078 
L 5225 3078 
L 5225 3953 
L 1169 3953 
L 1169 3078 
L 300 3078 
z
M 1813 3772 
Q 2469 3484 3163 3134 
L 2769 2497 
Q 2031 2909 1450 3184 
L 1813 3772 
z
" transform="scale(0.015625)"/>
      <path id="MicrosoftYaHei-Bold-4f53" d="M 1100 5309 
L 1906 5103 
Q 1697 4303 1450 3613 
L 1450 1072 
Q 2450 2116 2934 3516 
L 1806 3516 
L 1806 4297 
L 3438 4297 
L 3438 5309 
L 4263 5309 
L 4263 4297 
L 6063 4297 
L 6063 3516 
L 4716 3516 
Q 5191 2188 6313 1166 
Q 6044 759 5769 278 
Q 5519 538 5300 853 
L 5300 209 
L 4263 209 
L 4263 -841 
L 3438 -841 
L 3438 209 
L 2431 209 
L 2431 878 
Q 2191 519 1906 191 
Q 1722 491 1450 900 
L 1450 -828 
L 700 -828 
L 700 1922 
Q 500 1563 288 1253 
Q 213 1822 88 2434 
Q 581 3359 1100 5309 
z
M 2509 997 
L 3438 997 
L 3438 3163 
Q 3138 1972 2509 997 
z
M 4263 3128 
L 4263 997 
L 5203 997 
Q 4634 1866 4263 3128 
z
" transform="scale(0.015625)"/>
      <path id="MicrosoftYaHei-Bold-7c7b" d="M 331 3953 
L 1781 3953 
Q 1319 4347 838 4728 
L 1306 5247 
Q 1863 4866 2431 4422 
Q 2425 4409 1975 3953 
L 2763 3953 
L 2763 5303 
L 3613 5303 
L 3613 3953 
L 4456 3953 
L 4038 4372 
Q 4513 4753 5106 5259 
L 5663 4728 
Q 5138 4297 4688 3953 
L 6069 3953 
L 6069 3216 
L 3925 3216 
Q 5069 2809 6025 2441 
L 5675 1734 
Q 4844 2122 3613 2653 
L 3613 2141 
L 2763 2141 
L 2763 2722 
Q 2038 2116 813 1747 
Q 644 2122 400 2509 
Q 1588 2747 2256 3216 
L 331 3216 
L 331 3953 
z
M 225 1603 
L 2719 1603 
Q 2744 1772 2750 1966 
L 3606 1966 
Q 3588 1772 3563 1603 
L 6181 1603 
L 6181 841 
L 4013 841 
Q 4788 66 6238 -91 
Q 5863 -603 5681 -891 
Q 4006 -528 3225 734 
Q 2850 -359 694 -872 
Q 388 -391 169 -109 
Q 1844 134 2419 841 
L 225 841 
L 225 1603 
z
" transform="scale(0.015625)"/>
      <path id="MicrosoftYaHei-Bold-578b" d="M 5963 5216 
L 5963 2547 
Q 5963 2141 5752 1928 
Q 5541 1716 5095 1700 
Q 4650 1684 4269 1684 
Q 4231 2059 4150 2447 
Q 4469 2428 4813 2428 
Q 5150 2428 5150 2709 
L 5150 5216 
L 5963 5216 
z
M 150 3491 
L 891 3491 
Q 900 3616 900 4341 
L 325 4341 
L 325 5066 
L 3625 5066 
L 3625 4341 
L 3113 4341 
L 3113 3491 
L 3750 3491 
L 3750 2766 
L 3113 2766 
L 3113 2091 
L 3656 2091 
L 3656 1441 
L 5781 1441 
L 5781 678 
L 3656 678 
L 3656 103 
L 6294 103 
L 6294 -647 
L 138 -647 
L 138 103 
L 2763 103 
L 2763 678 
L 650 678 
L 650 1441 
L 2763 1441 
L 2763 1766 
L 2350 1766 
L 2350 2766 
L 1559 2766 
Q 1375 2016 888 1522 
Q 675 1697 275 2009 
Q 584 2334 741 2766 
L 150 2766 
L 150 3491 
z
M 1663 3491 
L 2350 3491 
L 2350 4341 
L 1669 4341 
Q 1669 3753 1663 3491 
z
M 3900 4866 
L 4650 4866 
L 4650 2753 
L 3900 2753 
L 3900 4866 
z
" transform="scale(0.015625)"/>
      <path id="MicrosoftYaHei-Bold-5206" d="M 6350 3028 
Q 6088 2703 5750 2228 
Q 5519 2409 5303 2603 
Q 5219 606 5172 190 
Q 5125 -225 4862 -451 
Q 4600 -678 4128 -678 
Q 3484 -678 2913 -659 
Q 2856 -141 2781 284 
Q 3594 216 3956 216 
Q 4172 216 4230 408 
Q 4288 600 4325 1978 
L 2781 1978 
Q 2728 1100 2529 631 
Q 2331 163 1907 -215 
Q 1484 -594 844 -872 
Q 456 -353 194 -78 
Q 750 144 1111 414 
Q 1472 684 1630 989 
Q 1788 1294 1841 1978 
L 950 1978 
L 950 2475 
Q 794 2356 631 2247 
Q 344 2653 63 2953 
Q 1475 3947 2194 5316 
L 3031 4953 
Q 2378 3722 1391 2841 
L 5047 2841 
Q 4088 3766 3463 4903 
L 4238 5303 
Q 5038 3922 6350 3028 
z
" transform="scale(0.015625)"/>
      <path id="MicrosoftYaHei-Bold-5e03" d="M 3919 -834 
L 3050 -834 
L 3050 2034 
L 2063 2034 
L 2063 -359 
L 1200 -359 
L 1200 1641 
Q 825 1238 400 866 
Q 244 1403 113 1741 
Q 1128 2669 1731 3709 
L 200 3709 
L 200 4541 
L 2141 4541 
Q 2294 4916 2400 5303 
L 3275 5203 
Q 3169 4866 3038 4541 
L 6250 4541 
L 6250 3709 
L 2659 3709 
Q 2406 3222 2094 2766 
L 3050 2766 
L 3050 3566 
L 3919 3566 
L 3919 2766 
L 5800 2766 
L 5800 741 
Q 5800 338 5628 112 
Q 5456 -113 5178 -164 
Q 4900 -216 4306 -216 
Q 4225 291 4156 609 
Q 4456 584 4544 584 
Q 4950 584 4950 1034 
L 4950 2034 
L 3919 2034 
L 3919 -834 
z
" transform="scale(0.015625)"/>
     </defs>
     <use xlink:href="#MicrosoftYaHei-Bold-6587"/>
     <use xlink:href="#MicrosoftYaHei-Bold-5316" transform="translate(100 0)"/>
     <use xlink:href="#MicrosoftYaHei-Bold-5b9e" transform="translate(200 0)"/>
     <use xlink:href="#MicrosoftYaHei-Bold-4f53" transform="translate(300 0)"/>
     <use xlink:href="#MicrosoftYaHei-Bold-7c7b" transform="translate(400 0)"/>
     <use xlink:href="#MicrosoftYaHei-Bold-578b" transform="translate(500 0)"/>
     <use xlink:href="#MicrosoftYaHei-Bold-5206" transform="translate(600 0)"/>
     <use xlink:href="#MicrosoftYaHei-Bold-5e03" transform="translate(700 0)"/>
    </g>
   </g>
  </g>
  <g id="axes_2">
   <g id="patch_8">
    <path d="M 481.43222 381.79125 
L 940.489028 381.79125 
L 940.489028 24.39125 
L 481.43222 24.39125 
z
" style="fill: #ffffff"/>
   </g>
   <g id="patch_9">
    <path d="M 481.43222 365.545795 
L 918.62918 365.545795 
L 918.62918 320.730748 
L 481.43222 320.730748 
z
" clip-path="url(#pe56af968ac)" style="fill: #4ecdc4; stroke: #333333; stroke-width: 0.5; stroke-linejoin: miter"/>
   </g>
   <g id="patch_10">
    <path d="M 481.43222 309.526987 
L 683.052177 309.526987 
L 683.052177 264.71194 
L 481.43222 264.71194 
z
" clip-path="url(#pe56af968ac)" style="fill: #ff6b6b; stroke: #333333; stroke-width: 0.5; stroke-linejoin: miter"/>
   </g>
   <g id="patch_11">
    <path d="M 481.43222 253.508178 
L 727.620799 253.508178 
L 727.620799 208.693131 
L 481.43222 208.693131 
z
" clip-path="url(#pe56af968ac)" style="fill: #98d8c8; stroke: #333333; stroke-width: 0.5; stroke-linejoin: miter"/>
   </g>
   <g id="patch_12">
    <path d="M 481.43222 197.489369 
L 668.19597 197.489369 
L 668.19597 152.674322 
L 481.43222 152.674322 
z
" clip-path="url(#pe56af968ac)" style="fill: #f7dc6f; stroke: #333333; stroke-width: 0.5; stroke-linejoin: miter"/>
   </g>
   <g id="patch_13">
    <path d="M 481.43222 141.47056 
L 723.376169 141.47056 
L 723.376169 96.655513 
L 481.43222 96.655513 
z
" clip-path="url(#pe56af968ac)" style="fill: #45b7d1; stroke: #333333; stroke-width: 0.5; stroke-linejoin: miter"/>
   </g>
   <g id="patch_14">
    <path d="M 481.43222 85.451752 
L 496.288428 85.451752 
L 496.288428 40.636705 
L 481.43222 40.636705 
z
" clip-path="url(#pe56af968ac)" style="fill: #ffa07a; stroke: #333333; stroke-width: 0.5; stroke-linejoin: miter"/>
   </g>
   <g id="matplotlib.axis_3">
    <g id="xtick_1">
     <g id="line2d_1">
      <defs>
       <path id="m1df6523ef2" d="M 0 0 
L 0 3.5 
" style="stroke: #000000; stroke-width: 0.8"/>
      </defs>
      <g>
       <use xlink:href="#m1df6523ef2" x="481.43222" y="381.79125" style="stroke: #000000; stroke-width: 0.8"/>
      </g>
     </g>
     <g id="text_14">
      <!-- 0 -->
      <g transform="translate(478.500189 396.785) scale(0.1 -0.1)">
       <defs>
        <path id="MicrosoftYaHei-30" d="M 284 2325 
Q 284 3606 709 4264 
Q 1134 4922 1941 4922 
Q 3478 4922 3478 2441 
Q 3478 1216 3045 567 
Q 2613 -81 1831 -81 
Q 1094 -81 689 534 
Q 284 1150 284 2325 
z
M 909 2353 
Q 909 425 1888 425 
Q 2850 425 2850 2384 
Q 2850 4413 1906 4413 
Q 909 4413 909 2353 
z
" transform="scale(0.015625)"/>
       </defs>
       <use xlink:href="#MicrosoftYaHei-30"/>
      </g>
     </g>
    </g>
    <g id="xtick_2">
     <g id="line2d_2">
      <g>
       <use xlink:href="#m1df6523ef2" x="534.490104" y="381.79125" style="stroke: #000000; stroke-width: 0.8"/>
      </g>
     </g>
     <g id="text_15">
      <!-- 25 -->
      <g transform="translate(528.626041 396.785) scale(0.1 -0.1)">
       <use xlink:href="#MicrosoftYaHei-32"/>
       <use xlink:href="#MicrosoftYaHei-35" transform="translate(58.642578 0)"/>
      </g>
     </g>
    </g>
    <g id="xtick_3">
     <g id="line2d_3">
      <g>
       <use xlink:href="#m1df6523ef2" x="587.547987" y="381.79125" style="stroke: #000000; stroke-width: 0.8"/>
      </g>
     </g>
     <g id="text_16">
      <!-- 50 -->
      <g transform="translate(581.683925 396.785) scale(0.1 -0.1)">
       <use xlink:href="#MicrosoftYaHei-35"/>
       <use xlink:href="#MicrosoftYaHei-30" transform="translate(58.642578 0)"/>
      </g>
     </g>
    </g>
    <g id="xtick_4">
     <g id="line2d_4">
      <g>
       <use xlink:href="#m1df6523ef2" x="640.605871" y="381.79125" style="stroke: #000000; stroke-width: 0.8"/>
      </g>
     </g>
     <g id="text_17">
      <!-- 75 -->
      <g transform="translate(634.741808 396.785) scale(0.1 -0.1)">
       <defs>
        <path id="MicrosoftYaHei-37" d="M 3422 4463 
Q 2659 3131 2223 1998 
Q 1788 866 1684 0 
L 1047 0 
Q 1163 853 1594 1947 
Q 2025 3041 2747 4300 
L 347 4300 
L 347 4841 
L 3422 4841 
L 3422 4463 
z
" transform="scale(0.015625)"/>
       </defs>
       <use xlink:href="#MicrosoftYaHei-37"/>
       <use xlink:href="#MicrosoftYaHei-35" transform="translate(58.642578 0)"/>
      </g>
     </g>
    </g>
    <g id="xtick_5">
     <g id="line2d_5">
      <g>
       <use xlink:href="#m1df6523ef2" x="693.663754" y="381.79125" style="stroke: #000000; stroke-width: 0.8"/>
      </g>
     </g>
     <g id="text_18">
      <!-- 100 -->
      <g transform="translate(684.86766 396.785) scale(0.1 -0.1)">
       <use xlink:href="#MicrosoftYaHei-31"/>
       <use xlink:href="#MicrosoftYaHei-30" transform="translate(58.642578 0)"/>
       <use xlink:href="#MicrosoftYaHei-30" transform="translate(117.285156 0)"/>
      </g>
     </g>
    </g>
    <g id="xtick_6">
     <g id="line2d_6">
      <g>
       <use xlink:href="#m1df6523ef2" x="746.721637" y="381.79125" style="stroke: #000000; stroke-width: 0.8"/>
      </g>
     </g>
     <g id="text_19">
      <!-- 125 -->
      <g transform="translate(737.925544 396.785) scale(0.1 -0.1)">
       <use xlink:href="#MicrosoftYaHei-31"/>
       <use xlink:href="#MicrosoftYaHei-32" transform="translate(58.642578 0)"/>
       <use xlink:href="#MicrosoftYaHei-35" transform="translate(117.285156 0)"/>
      </g>
     </g>
    </g>
    <g id="xtick_7">
     <g id="line2d_7">
      <g>
       <use xlink:href="#m1df6523ef2" x="799.779521" y="381.79125" style="stroke: #000000; stroke-width: 0.8"/>
      </g>
     </g>
     <g id="text_20">
      <!-- 150 -->
      <g transform="translate(790.983427 396.785) scale(0.1 -0.1)">
       <use xlink:href="#MicrosoftYaHei-31"/>
       <use xlink:href="#MicrosoftYaHei-35" transform="translate(58.642578 0)"/>
       <use xlink:href="#MicrosoftYaHei-30" transform="translate(117.285156 0)"/>
      </g>
     </g>
    </g>
    <g id="xtick_8">
     <g id="line2d_8">
      <g>
       <use xlink:href="#m1df6523ef2" x="852.837404" y="381.79125" style="stroke: #000000; stroke-width: 0.8"/>
      </g>
     </g>
     <g id="text_21">
      <!-- 175 -->
      <g transform="translate(844.041311 396.785) scale(0.1 -0.1)">
       <use xlink:href="#MicrosoftYaHei-31"/>
       <use xlink:href="#MicrosoftYaHei-37" transform="translate(58.642578 0)"/>
       <use xlink:href="#MicrosoftYaHei-35" transform="translate(117.285156 0)"/>
      </g>
     </g>
    </g>
    <g id="xtick_9">
     <g id="line2d_9">
      <g>
       <use xlink:href="#m1df6523ef2" x="905.895288" y="381.79125" style="stroke: #000000; stroke-width: 0.8"/>
      </g>
     </g>
     <g id="text_22">
      <!-- 200 -->
      <g transform="translate(897.099194 396.785) scale(0.1 -0.1)">
       <use xlink:href="#MicrosoftYaHei-32"/>
       <use xlink:href="#MicrosoftYaHei-30" transform="translate(58.642578 0)"/>
       <use xlink:href="#MicrosoftYaHei-30" transform="translate(117.285156 0)"/>
      </g>
     </g>
    </g>
    <g id="text_23">
     <!-- 数量 -->
     <g transform="translate(698.960624 412.863437) scale(0.12 -0.12)">
      <defs>
       <path id="MicrosoftYaHei-6570" d="M 4175 5303 
L 4675 5228 
Q 4544 4622 4369 4097 
L 6281 4097 
L 6281 3672 
L 5888 3672 
Q 5731 1834 5088 753 
Q 5594 66 6375 -372 
Q 6175 -647 6038 -866 
Q 5275 -372 4769 309 
Q 4194 -403 3400 -928 
Q 3263 -747 3044 -534 
Q 3919 41 4463 772 
Q 3956 1647 3794 2791 
Q 3663 2559 3519 2359 
Q 3394 2541 3206 2759 
Q 3931 3803 4175 5303 
z
M 150 1697 
L 1100 1697 
Q 1238 1934 1369 2184 
L 1819 2041 
Q 1719 1866 1619 1697 
L 3150 1697 
L 3150 1291 
Q 2913 678 2431 216 
Q 2775 53 3131 -109 
L 2856 -541 
Q 2469 -322 2050 -103 
Q 1344 -609 269 -903 
Q 169 -703 56 -466 
Q 969 -259 1600 128 
Q 1063 403 475 691 
Q 675 978 863 1284 
L 150 1284 
L 150 1697 
z
M 219 3847 
L 1656 3847 
L 1656 5247 
L 2119 5247 
L 2119 3847 
L 3319 3847 
L 3319 3434 
L 2119 3434 
L 2119 3053 
L 2306 3266 
Q 2888 2841 3281 2516 
L 2981 2166 
Q 2638 2491 2119 2897 
L 2119 2184 
L 1656 2184 
L 1656 3059 
Q 1088 2466 331 2016 
Q 213 2197 63 2397 
Q 850 2822 1506 3434 
L 219 3434 
L 219 3847 
z
M 5388 3672 
L 4219 3672 
Q 4188 3591 4150 3516 
Q 4263 2191 4775 1247 
Q 5275 2159 5388 3672 
z
M 1088 834 
Q 1531 634 2000 416 
Q 2431 784 2675 1284 
L 1375 1284 
Q 1231 1053 1088 834 
z
M 3038 5091 
L 3425 4834 
Q 3081 4384 2738 4003 
Q 2594 4128 2400 4266 
Q 2725 4647 3038 5091 
z
M 381 4816 
L 738 5059 
Q 1019 4716 1319 4322 
L 931 4047 
Q 656 4453 381 4816 
z
" transform="scale(0.015625)"/>
       <path id="MicrosoftYaHei-91cf" d="M 113 -278 
L 2981 -278 
L 2981 78 
L 475 78 
L 475 403 
L 2981 403 
L 2981 759 
L 1494 759 
L 1494 597 
L 1069 597 
L 1069 2516 
L 5350 2516 
L 5350 597 
L 4925 597 
L 4925 759 
L 3419 759 
L 3419 403 
L 5931 403 
L 5931 78 
L 3419 78 
L 3419 -278 
L 6288 -278 
L 6288 -616 
L 113 -616 
L 113 -278 
z
M 1119 5072 
L 5306 5072 
L 5306 3284 
L 4881 3284 
L 4881 3453 
L 1544 3453 
L 1544 3284 
L 1119 3284 
L 1119 5072 
z
M 163 3153 
L 6263 3153 
L 6263 2816 
L 163 2816 
L 163 3153 
z
M 1544 3778 
L 4881 3778 
L 4881 4116 
L 1544 4116 
L 1544 3778 
z
M 4881 4747 
L 1544 4747 
L 1544 4416 
L 4881 4416 
L 4881 4747 
z
M 3419 1084 
L 4925 1084 
L 4925 1491 
L 3419 1491 
L 3419 1084 
z
M 1494 1084 
L 2981 1084 
L 2981 1491 
L 1494 1491 
L 1494 1084 
z
M 4925 2191 
L 3419 2191 
L 3419 1791 
L 4925 1791 
L 4925 2191 
z
M 1494 1791 
L 2981 1791 
L 2981 2191 
L 1494 2191 
L 1494 1791 
z
" transform="scale(0.015625)"/>
      </defs>
      <use xlink:href="#MicrosoftYaHei-6570"/>
      <use xlink:href="#MicrosoftYaHei-91cf" transform="translate(100 0)"/>
     </g>
    </g>
   </g>
   <g id="matplotlib.axis_4">
    <g id="ytick_1">
     <g id="line2d_10">
      <defs>
       <path id="md7ca40bdf6" d="M 0 0 
L -3.5 0 
" style="stroke: #000000; stroke-width: 0.8"/>
      </defs>
      <g>
       <use xlink:href="#md7ca40bdf6" x="481.43222" y="343.138272" style="stroke: #000000; stroke-width: 0.8"/>
      </g>
     </g>
     <g id="text_24">
      <!-- 地点 -->
      <g transform="translate(454.43222 347.135147) scale(0.1 -0.1)">
       <use xlink:href="#MicrosoftYaHei-5730"/>
       <use xlink:href="#MicrosoftYaHei-70b9" transform="translate(100 0)"/>
      </g>
     </g>
    </g>
    <g id="ytick_2">
     <g id="line2d_11">
      <g>
       <use xlink:href="#md7ca40bdf6" x="481.43222" y="287.119463" style="stroke: #000000; stroke-width: 0.8"/>
      </g>
     </g>
     <g id="text_25">
      <!-- 人物 -->
      <g transform="translate(454.43222 291.116338) scale(0.1 -0.1)">
       <use xlink:href="#MicrosoftYaHei-4eba"/>
       <use xlink:href="#MicrosoftYaHei-7269" transform="translate(100 0)"/>
      </g>
     </g>
    </g>
    <g id="ytick_3">
     <g id="line2d_12">
      <g>
       <use xlink:href="#md7ca40bdf6" x="481.43222" y="231.100654" style="stroke: #000000; stroke-width: 0.8"/>
      </g>
     </g>
     <g id="text_26">
      <!-- 朝代 -->
      <g transform="translate(454.43222 235.097529) scale(0.1 -0.1)">
       <use xlink:href="#MicrosoftYaHei-671d"/>
       <use xlink:href="#MicrosoftYaHei-4ee3" transform="translate(100 0)"/>
      </g>
     </g>
    </g>
    <g id="ytick_4">
     <g id="line2d_13">
      <g>
       <use xlink:href="#md7ca40bdf6" x="481.43222" y="175.081846" style="stroke: #000000; stroke-width: 0.8"/>
      </g>
     </g>
     <g id="text_27">
      <!-- 文化要素 -->
      <g transform="translate(434.43222 179.078721) scale(0.1 -0.1)">
       <use xlink:href="#MicrosoftYaHei-6587"/>
       <use xlink:href="#MicrosoftYaHei-5316" transform="translate(100 0)"/>
       <use xlink:href="#MicrosoftYaHei-8981" transform="translate(200 0)"/>
       <use xlink:href="#MicrosoftYaHei-7d20" transform="translate(300 0)"/>
      </g>
     </g>
    </g>
    <g id="ytick_5">
     <g id="line2d_14">
      <g>
       <use xlink:href="#md7ca40bdf6" x="481.43222" y="119.063037" style="stroke: #000000; stroke-width: 0.8"/>
      </g>
     </g>
     <g id="text_28">
      <!-- 建筑 -->
      <g transform="translate(454.43222 123.059912) scale(0.1 -0.1)">
       <use xlink:href="#MicrosoftYaHei-5efa"/>
       <use xlink:href="#MicrosoftYaHei-7b51" transform="translate(100 0)"/>
      </g>
     </g>
    </g>
    <g id="ytick_6">
     <g id="line2d_15">
      <g>
       <use xlink:href="#md7ca40bdf6" x="481.43222" y="63.044228" style="stroke: #000000; stroke-width: 0.8"/>
      </g>
     </g>
     <g id="text_29">
      <!-- 事件 -->
      <g transform="translate(454.43222 67.041103) scale(0.1 -0.1)">
       <use xlink:href="#MicrosoftYaHei-4e8b"/>
       <use xlink:href="#MicrosoftYaHei-4ef6" transform="translate(100 0)"/>
      </g>
     </g>
    </g>
   </g>
   <g id="patch_15">
    <path d="M 481.43222 381.79125 
L 481.43222 24.39125 
" style="fill: none; stroke: #000000; stroke-width: 0.8; stroke-linejoin: miter; stroke-linecap: square"/>
   </g>
   <g id="patch_16">
    <path d="M 940.489028 381.79125 
L 940.489028 24.39125 
" style="fill: none; stroke: #000000; stroke-width: 0.8; stroke-linejoin: miter; stroke-linecap: square"/>
   </g>
   <g id="patch_17">
    <path d="M 481.43222 381.79125 
L 940.489028 381.79125 
" style="fill: none; stroke: #000000; stroke-width: 0.8; stroke-linejoin: miter; stroke-linecap: square"/>
   </g>
   <g id="patch_18">
    <path d="M 481.43222 24.39125 
L 940.489028 24.39125 
" style="fill: none; stroke: #000000; stroke-width: 0.8; stroke-linejoin: miter; stroke-linecap: square"/>
   </g>
   <g id="text_30">
    <!-- 206 -->
    <g transform="translate(920.751495 345.892178) scale(0.1 -0.1)">
     <defs>
      <path id="MicrosoftYaHei-36" d="M 3181 4219 
Q 2803 4413 2391 4413 
Q 1763 4413 1381 3866 
Q 1000 3319 994 2372 
L 1009 2372 
Q 1353 3038 2106 3038 
Q 2734 3038 3109 2628 
Q 3484 2219 3484 1541 
Q 3484 831 3051 375 
Q 2619 -81 1947 -81 
Q 1209 -81 789 495 
Q 369 1072 369 2131 
Q 369 3413 920 4167 
Q 1472 4922 2372 4922 
Q 2888 4922 3181 4781 
L 3181 4219 
z
M 1031 1584 
Q 1031 1106 1286 765 
Q 1541 425 1963 425 
Q 2363 425 2613 719 
Q 2863 1013 2863 1475 
Q 2863 1975 2627 2253 
Q 2391 2531 1956 2531 
Q 1544 2531 1287 2250 
Q 1031 1969 1031 1584 
z
" transform="scale(0.015625)"/>
     </defs>
     <use xlink:href="#MicrosoftYaHei-32"/>
     <use xlink:href="#MicrosoftYaHei-30" transform="translate(58.642578 0)"/>
     <use xlink:href="#MicrosoftYaHei-36" transform="translate(117.285156 0)"/>
    </g>
   </g>
   <g id="text_31">
    <!-- 95 -->
    <g transform="translate(685.174493 289.873369) scale(0.1 -0.1)">
     <use xlink:href="#MicrosoftYaHei-39"/>
     <use xlink:href="#MicrosoftYaHei-35" transform="translate(58.642578 0)"/>
    </g>
   </g>
   <g id="text_32">
    <!-- 116 -->
    <g transform="translate(729.743115 233.854561) scale(0.1 -0.1)">
     <use xlink:href="#MicrosoftYaHei-31"/>
     <use xlink:href="#MicrosoftYaHei-31" transform="translate(58.642578 0)"/>
     <use xlink:href="#MicrosoftYaHei-36" transform="translate(117.285156 0)"/>
    </g>
   </g>
   <g id="text_33">
    <!-- 88 -->
    <g transform="translate(670.318285 177.835752) scale(0.1 -0.1)">
     <use xlink:href="#MicrosoftYaHei-38"/>
     <use xlink:href="#MicrosoftYaHei-38" transform="translate(58.642578 0)"/>
    </g>
   </g>
   <g id="text_34">
    <!-- 114 -->
    <g transform="translate(725.498484 121.816943) scale(0.1 -0.1)">
     <use xlink:href="#MicrosoftYaHei-31"/>
     <use xlink:href="#MicrosoftYaHei-31" transform="translate(58.642578 0)"/>
     <use xlink:href="#MicrosoftYaHei-34" transform="translate(117.285156 0)"/>
    </g>
   </g>
   <g id="text_35">
    <!-- 7 -->
    <g transform="translate(498.410743 65.798134) scale(0.1 -0.1)">
     <use xlink:href="#MicrosoftYaHei-37"/>
    </g>
   </g>
   <g id="text_36">
    <!-- 文化实体数量统计 -->
    <g transform="translate(654.960624 18.39125) scale(0.14 -0.14)">
     <defs>
      <path id="MicrosoftYaHei-Bold-6570" d="M 238 4091 
L 725 4091 
Q 559 4425 281 4803 
L 844 5153 
Q 1038 4922 1369 4428 
L 806 4091 
L 1506 4091 
L 1506 5316 
L 2300 5316 
L 2300 4091 
L 2956 4091 
L 2438 4428 
Q 2750 4809 2963 5172 
L 3550 4822 
Q 3341 4466 3031 4091 
L 3394 4091 
L 3394 3453 
L 2300 3453 
L 2300 3016 
L 2513 3303 
Q 2903 3094 3253 2891 
Q 3766 3841 4138 5347 
L 4994 5266 
Q 4869 4781 4728 4341 
L 6294 4341 
L 6294 3578 
L 6041 3578 
Q 5906 1922 5338 856 
Q 5738 391 6319 53 
Q 6094 -203 5775 -778 
Q 5228 -413 4828 109 
Q 4313 -497 3631 -872 
Q 3378 -513 3072 -197 
L 2850 -566 
Q 2475 -350 2031 -128 
Q 1347 -584 394 -778 
Q 281 -434 63 -9 
Q 716 59 1213 253 
Q 781 444 300 641 
Q 513 950 681 1259 
L 169 1259 
L 169 1897 
L 991 1897 
Q 1094 2144 1169 2391 
L 1506 2359 
L 1506 2959 
Q 1044 2472 344 2053 
Q 213 2472 50 2803 
Q 672 3044 1172 3453 
L 238 3453 
L 238 4091 
z
M 4394 3400 
Q 4519 2359 4831 1659 
Q 5203 2478 5275 3578 
L 4463 3578 
Q 4431 3488 4394 3400 
z
M 2300 2216 
L 1984 2216 
Q 1913 2063 1825 1897 
L 3281 1897 
L 3281 1316 
Q 3038 806 2672 413 
L 3294 166 
L 3169 -38 
Q 3859 322 4347 894 
Q 4041 1522 3878 2300 
Q 3769 2103 3656 1922 
Q 3513 2172 3322 2438 
L 3138 2159 
Q 2750 2422 2300 2691 
L 2300 2216 
z
M 1300 934 
L 1950 691 
Q 2231 934 2413 1259 
L 1484 1259 
L 1300 934 
z
" transform="scale(0.015625)"/>
      <path id="MicrosoftYaHei-Bold-91cf" d="M 725 5103 
L 5675 5103 
L 5675 3416 
L 725 3416 
L 725 5103 
z
M 4825 4666 
L 1575 4666 
L 1575 4447 
L 4825 4447 
L 4825 4666 
z
M 4825 3853 
L 4825 4072 
L 1575 4072 
L 1575 3853 
L 4825 3853 
z
M 138 3209 
L 6288 3209 
L 6288 2747 
L 138 2747 
L 138 3209 
z
M 113 -184 
L 2781 -184 
L 2781 53 
L 506 53 
L 506 491 
L 2781 491 
L 2781 716 
L 713 716 
L 713 2534 
L 5681 2534 
L 5681 716 
L 3606 716 
L 3606 491 
L 5925 491 
L 5925 53 
L 3606 53 
L 3606 -184 
L 6300 -184 
L 6300 -647 
L 113 -647 
L 113 -184 
z
M 4881 2097 
L 3606 2097 
L 3606 1816 
L 4881 1816 
L 4881 2097 
z
M 1513 1816 
L 2781 1816 
L 2781 2097 
L 1513 2097 
L 1513 1816 
z
M 4881 1153 
L 4881 1434 
L 3606 1434 
L 3606 1153 
L 4881 1153 
z
M 1513 1153 
L 2781 1153 
L 2781 1434 
L 1513 1434 
L 1513 1153 
z
" transform="scale(0.015625)"/>
      <path id="MicrosoftYaHei-Bold-7edf" d="M 5569 1084 
Q 5944 897 6319 772 
Q 6234 -184 6023 -453 
Q 5813 -722 5356 -722 
L 4988 -722 
Q 4269 -722 4263 72 
L 4263 2066 
L 3756 2028 
Q 3722 656 3337 29 
Q 2953 -597 2406 -872 
Q 2144 -575 1788 -219 
Q 950 -303 213 -416 
L 144 416 
Q 763 459 2275 641 
Q 2259 406 2256 138 
Q 2938 591 2966 1950 
Q 2616 1909 2406 1866 
L 2181 2628 
Q 2675 2941 3250 3953 
L 2194 3953 
L 2194 4666 
L 3578 4666 
Q 3475 4916 3344 5191 
L 4275 5359 
Q 4444 5019 4597 4666 
L 6169 4666 
L 6169 3953 
L 4169 3953 
Q 3759 3316 3225 2697 
Q 4009 2725 4956 2781 
Q 4744 3103 4506 3434 
L 5131 3791 
Q 5794 2916 6269 2159 
L 5588 1747 
Q 5481 1938 5366 2131 
L 5063 2116 
L 5063 316 
Q 5063 72 5225 72 
L 5281 72 
Q 5428 72 5475 225 
Q 5522 378 5569 1084 
z
M 1256 1678 
L 2181 1784 
Q 2131 1397 2138 1072 
Q 1125 1022 431 897 
L 238 1591 
Q 597 1950 1113 2722 
Q 625 2688 306 2641 
L 81 3347 
Q 675 4159 1156 5359 
L 1975 5034 
Q 1519 4178 988 3422 
Q 1247 3425 1578 3444 
L 1863 3916 
L 2513 3566 
Q 1863 2541 1256 1678 
z
" transform="scale(0.015625)"/>
      <path id="MicrosoftYaHei-Bold-8ba1" d="M 1194 5334 
Q 1681 4678 2019 4172 
L 1219 3691 
Q 913 4241 463 4916 
L 1194 5334 
z
M 2175 3428 
L 3763 3428 
L 3763 5328 
L 4700 5328 
L 4700 3428 
L 6300 3428 
L 6300 2591 
L 4700 2591 
L 4700 -847 
L 3763 -847 
L 3763 2591 
L 2175 2591 
L 2175 3428 
z
M 2481 1341 
Q 2531 759 2588 416 
Q 1388 -366 1063 -722 
L 600 -109 
Q 756 78 756 416 
L 756 2422 
L 119 2422 
L 119 3234 
L 1588 3234 
L 1588 766 
Q 1844 916 2481 1341 
z
" transform="scale(0.015625)"/>
     </defs>
     <use xlink:href="#MicrosoftYaHei-Bold-6587"/>
     <use xlink:href="#MicrosoftYaHei-Bold-5316" transform="translate(100 0)"/>
     <use xlink:href="#MicrosoftYaHei-Bold-5b9e" transform="translate(200 0)"/>
     <use xlink:href="#MicrosoftYaHei-Bold-4f53" transform="translate(300 0)"/>
     <use xlink:href="#MicrosoftYaHei-Bold-6570" transform="translate(400 0)"/>
     <use xlink:href="#MicrosoftYaHei-Bold-91cf" transform="translate(500 0)"/>
     <use xlink:href="#MicrosoftYaHei-Bold-7edf" transform="translate(600 0)"/>
     <use xlink:href="#MicrosoftYaHei-Bold-8ba1" transform="translate(700 0)"/>
    </g>
   </g>
  </g>
 </g>
 <defs>
  <clipPath id="pe56af968ac">
   <rect x="481.43222" y="24.39125" width="459.056808" height="357.4"/>
  </clipPath>
 </defs>
</svg>
