<?xml version="1.0" encoding="utf-8" standalone="no"?>
<!DOCTYPE svg PUBLIC "-//W3C//DTD SVG 1.1//EN"
  "http://www.w3.org/Graphics/SVG/1.1/DTD/svg11.dtd">
<svg xmlns:xlink="http://www.w3.org/1999/xlink" width="712.8pt" height="568.47125pt" viewBox="0 0 712.8 568.47125" xmlns="http://www.w3.org/2000/svg" version="1.1">
 <metadata>
  <rdf:RDF xmlns:dc="http://purl.org/dc/elements/1.1/" xmlns:cc="http://creativecommons.org/ns#" xmlns:rdf="http://www.w3.org/1999/02/22-rdf-syntax-ns#">
   <cc:Work>
    <dc:type rdf:resource="http://purl.org/dc/dcmitype/StillImage"/>
    <dc:date>2026-03-15T17:18:36.923566</dc:date>
    <dc:format>image/svg+xml</dc:format>
    <dc:creator>
     <cc:Agent>
      <dc:title>Matplotlib v3.10.8, https://matplotlib.org/</dc:title>
     </cc:Agent>
    </dc:creator>
   </cc:Work>
  </rdf:RDF>
 </metadata>
 <defs>
  <style type="text/css">*{stroke-linejoin: round; stroke-linecap: butt}</style>
 </defs>
 <g id="figure_1">
  <g id="patch_1">
   <path d="M 0 568.47125 
L 712.8 568.47125 
L 712.8 0 
L 0 0 
z
" style="fill: #ffffff"/>
  </g>
  <g id="axes_1">
   <g id="line2d_1">
    <path d="M 350.878557 293.698755 
L 298.254019 533.058713 
" clip-path="url(#pba18c56152)" style="fill: none; stroke: #666666; stroke-opacity: 0.5; stroke-linecap: square"/>
   </g>
   <g id="line2d_2">
    <path d="M 350.878557 293.698755 
L 328.721253 76.809273 
" clip-path="url(#pba18c56152)" style="fill: none; stroke: #666666; stroke-opacity: 0.5; stroke-linecap: square"/>
   </g>
   <g id="line2d_3">
    <path d="M 350.878557 293.698755 
L 646.978017 386.784763 
" clip-path="url(#pba18c56152)" style="fill: none; stroke: #666666; stroke-opacity: 0.5; stroke-linecap: square"/>
   </g>
   <g id="line2d_4">
    <path d="M 350.878557 293.698755 
L 618.162164 424.793917 
" clip-path="url(#pba18c56152)" style="fill: none; stroke: #666666; stroke-opacity: 0.5; stroke-linecap: square"/>
   </g>
   <g id="line2d_5">
    <path d="M 350.878557 293.698755 
L 673.854545 250.45631 
" clip-path="url(#pba18c56152)" style="fill: none; stroke: #666666; stroke-opacity: 0.5; stroke-linecap: square"/>
   </g>
   <g id="line2d_6">
    <path d="M 350.878557 293.698755 
L 292.450113 48.794886 
" clip-path="url(#pba18c56152)" style="fill: none; stroke: #666666; stroke-opacity: 0.5; stroke-linecap: square"/>
   </g>
   <g id="line2d_7">
    <path d="M 350.878557 293.698755 
L 548.228516 495.650964 
" clip-path="url(#pba18c56152)" style="fill: none; stroke: #666666; stroke-opacity: 0.5; stroke-linecap: square"/>
   </g>
   <g id="line2d_8">
    <path d="M 350.878557 293.698755 
L 582.585774 140.921848 
" clip-path="url(#pba18c56152)" style="fill: none; stroke: #666666; stroke-opacity: 0.5; stroke-linecap: square"/>
   </g>
   <g id="line2d_9">
    <path d="M 350.878557 293.698755 
L 646.005374 300.963113 
" clip-path="url(#pba18c56152)" style="fill: none; stroke: #666666; stroke-opacity: 0.5; stroke-linecap: square"/>
   </g>
   <g id="line2d_10">
    <path d="M 350.878557 293.698755 
L 105.927463 373.8244 
" clip-path="url(#pba18c56152)" style="fill: none; stroke: #666666; stroke-opacity: 0.5; stroke-linecap: square"/>
   </g>
   <g id="line2d_11">
    <path d="M 350.878557 293.698755 
L 151.45391 484.227653 
" clip-path="url(#pba18c56152)" style="fill: none; stroke: #666666; stroke-opacity: 0.5; stroke-linecap: square"/>
   </g>
   <g id="line2d_12">
    <path d="M 350.878557 293.698755 
L 410.155808 536.867614 
" clip-path="url(#pba18c56152)" style="fill: none; stroke: #666666; stroke-opacity: 0.5; stroke-linecap: square"/>
   </g>
   <g id="line2d_13">
    <path d="M 350.878557 293.698755 
L 125.614071 102.94822 
" clip-path="url(#pba18c56152)" style="fill: none; stroke: #666666; stroke-opacity: 0.5; stroke-linecap: square"/>
   </g>
   <g id="line2d_14">
    <path d="M 350.878557 293.698755 
L 257.111182 508.821167 
" clip-path="url(#pba18c56152)" style="fill: none; stroke: #666666; stroke-opacity: 0.5; stroke-linecap: square"/>
   </g>
   <g id="line2d_15">
    <path d="M 350.878557 293.698755 
L 641.564067 168.720254 
" clip-path="url(#pba18c56152)" style="fill: none; stroke: #666666; stroke-opacity: 0.5; stroke-linecap: square"/>
   </g>
   <g id="line2d_16">
    <path d="M 350.878557 293.698755 
L 203.319661 506.053282 
" clip-path="url(#pba18c56152)" style="fill: none; stroke: #666666; stroke-opacity: 0.5; stroke-linecap: square"/>
   </g>
   <g id="line2d_17">
    <path d="M 350.878557 293.698755 
L 457.784752 65.680034 
" clip-path="url(#pba18c56152)" style="fill: none; stroke: #666666; stroke-opacity: 0.5; stroke-linecap: square"/>
   </g>
   <g id="line2d_18">
    <path d="M 350.878557 293.698755 
L 55.586342 199.236669 
" clip-path="url(#pba18c56152)" style="fill: none; stroke: #666666; stroke-opacity: 0.5; stroke-linecap: square"/>
   </g>
   <g id="line2d_19">
    <path d="M 350.878557 293.698755 
L 132.761091 156.214786 
" clip-path="url(#pba18c56152)" style="fill: none; stroke: #666666; stroke-opacity: 0.5; stroke-linecap: square"/>
   </g>
   <g id="line2d_20">
    <path d="M 350.878557 293.698755 
L 80.355527 150.894261 
" clip-path="url(#pba18c56152)" style="fill: none; stroke: #666666; stroke-opacity: 0.5; stroke-linecap: square"/>
   </g>
   <g id="line2d_21">
    <path d="M 350.878557 293.698755 
L 500.028699 98.144314 
" clip-path="url(#pba18c56152)" style="fill: none; stroke: #666666; stroke-opacity: 0.5; stroke-linecap: square"/>
   </g>
   <g id="line2d_22">
    <path d="M 350.878557 293.698755 
L 463.833737 518.56319 
" clip-path="url(#pba18c56152)" style="fill: none; stroke: #666666; stroke-opacity: 0.5; stroke-linecap: square"/>
   </g>
   <g id="line2d_23">
    <path d="M 350.878557 293.698755 
L 395.250629 68.288513 
" clip-path="url(#pba18c56152)" style="fill: none; stroke: #666666; stroke-opacity: 0.5; stroke-linecap: square"/>
   </g>
   <g id="line2d_24">
    <path d="M 350.878557 293.698755 
L 576.179878 451.842066 
" clip-path="url(#pba18c56152)" style="fill: none; stroke: #666666; stroke-opacity: 0.5; stroke-linecap: square"/>
   </g>
   <g id="line2d_25">
    <path d="M 350.878557 293.698755 
L 657.048346 343.158457 
" clip-path="url(#pba18c56152)" style="fill: none; stroke: #666666; stroke-opacity: 0.5; stroke-linecap: square"/>
   </g>
   <g id="line2d_26">
    <path d="M 350.878557 293.698755 
L 567.162259 198.559128 
" clip-path="url(#pba18c56152)" style="fill: none; stroke: #666666; stroke-opacity: 0.5; stroke-linecap: square"/>
   </g>
   <g id="line2d_27">
    <path d="M 350.878557 293.698755 
L 355.837599 527.54772 
" clip-path="url(#pba18c56152)" style="fill: none; stroke: #666666; stroke-opacity: 0.5; stroke-linecap: square"/>
   </g>
   <g id="line2d_28">
    <path d="M 350.878557 293.698755 
L 225.813665 62.458529 
" clip-path="url(#pba18c56152)" style="fill: none; stroke: #666666; stroke-opacity: 0.5; stroke-linecap: square"/>
   </g>
   <g id="line2d_29">
    <path d="M 350.878557 293.698755 
L 38.945455 243.952253 
" clip-path="url(#pba18c56152)" style="fill: none; stroke: #666666; stroke-opacity: 0.5; stroke-linecap: square"/>
   </g>
   <g id="line2d_30">
    <path d="M 350.878557 293.698755 
L 638.657489 226.528775 
" clip-path="url(#pba18c56152)" style="fill: none; stroke: #666666; stroke-opacity: 0.5; stroke-linecap: square"/>
   </g>
   <g id="line2d_31">
    <path d="M 350.878557 293.698755 
L 137.494703 446.140069 
" clip-path="url(#pba18c56152)" style="fill: none; stroke: #666666; stroke-opacity: 0.5; stroke-linecap: square"/>
   </g>
   <g id="line2d_32">
    <path d="M 350.878557 293.698755 
L 498.30569 482.963432 
" clip-path="url(#pba18c56152)" style="fill: none; stroke: #666666; stroke-opacity: 0.5; stroke-linecap: square"/>
   </g>
   <g id="line2d_33">
    <path d="M 350.878557 293.698755 
L 565.550856 96.896528 
" clip-path="url(#pba18c56152)" style="fill: none; stroke: #666666; stroke-opacity: 0.5; stroke-linecap: square"/>
   </g>
   <g id="line2d_34">
    <path d="M 350.878557 293.698755 
L 57.98742 279.621404 
" clip-path="url(#pba18c56152)" style="fill: none; stroke: #666666; stroke-opacity: 0.5; stroke-linecap: square"/>
   </g>
   <g id="line2d_35">
    <path d="M 350.878557 293.698755 
L 50.550205 322.830311 
" clip-path="url(#pba18c56152)" style="fill: none; stroke: #666666; stroke-opacity: 0.5; stroke-linecap: square"/>
   </g>
   <g id="line2d_36">
    <path d="M 350.878557 293.698755 
L 53.062129 373.884544 
" clip-path="url(#pba18c56152)" style="fill: none; stroke: #666666; stroke-opacity: 0.5; stroke-linecap: square"/>
   </g>
   <g id="line2d_37">
    <path d="M 350.878557 293.698755 
L 83.633303 427.934085 
" clip-path="url(#pba18c56152)" style="fill: none; stroke: #666666; stroke-opacity: 0.5; stroke-linecap: square"/>
   </g>
   <g id="line2d_38">
    <path d="M 350.878557 293.698755 
L 184.51144 91.662986 
" clip-path="url(#pba18c56152)" style="fill: none; stroke: #666666; stroke-opacity: 0.5; stroke-linecap: square"/>
   </g>
   <g id="PathCollection_1">
    <defs>
     <path id="m65fe2a61dd" d="M 0 11.18034 
C 2.965061 11.18034 5.80908 10.002309 7.905694 7.905694 
C 10.002309 5.80908 11.18034 2.965061 11.18034 0 
C 11.18034 -2.965061 10.002309 -5.80908 7.905694 -7.905694 
C 5.80908 -10.002309 2.965061 -11.18034 0 -11.18034 
C -2.965061 -11.18034 -5.80908 -10.002309 -7.905694 -7.905694 
C -10.002309 -5.80908 -11.18034 -2.965061 -11.18034 0 
C -11.18034 2.965061 -10.002309 5.80908 -7.905694 7.905694 
C -5.80908 10.002309 -2.965061 11.18034 0 11.18034 
z
" style="stroke: #333333; stroke-opacity: 0.8"/>
    </defs>
    <g clip-path="url(#pba18c56152)">
     <use xlink:href="#m65fe2a61dd" x="350.878557" y="293.698755" style="fill: #ff6b6b; fill-opacity: 0.8; stroke: #333333; stroke-opacity: 0.8"/>
    </g>
   </g>
   <g id="PathCollection_2">
    <defs>
     <path id="mcb9e0495ee" d="M 0 7.071068 
C 1.875269 7.071068 3.673985 6.326016 5 5 
C 6.326016 3.673985 7.071068 1.875269 7.071068 0 
C 7.071068 -1.875269 6.326016 -3.673985 5 -5 
C 3.673985 -6.326016 1.875269 -7.071068 0 -7.071068 
C -1.875269 -7.071068 -3.673985 -6.326016 -5 -5 
C -6.326016 -3.673985 -7.071068 -1.875269 -7.071068 0 
C -7.071068 1.875269 -6.326016 3.673985 -5 5 
C -3.673985 6.326016 -1.875269 7.071068 0 7.071068 
z
" style="stroke: #333333; stroke-opacity: 0.8"/>
    </defs>
    <g clip-path="url(#pba18c56152)">
     <use xlink:href="#mcb9e0495ee" x="638.657489" y="226.528775" style="fill: #4ecdc4; fill-opacity: 0.8; stroke: #333333; stroke-opacity: 0.8"/>
    </g>
   </g>
   <g id="PathCollection_3">
    <g clip-path="url(#pba18c56152)">
     <use xlink:href="#mcb9e0495ee" x="151.45391" y="484.227653" style="fill: #4ecdc4; fill-opacity: 0.8; stroke: #333333; stroke-opacity: 0.8"/>
    </g>
   </g>
   <g id="PathCollection_4">
    <defs>
     <path id="m9165f4607c" d="M 0 7.071068 
C 1.875269 7.071068 3.673985 6.326016 5 5 
C 6.326016 3.673985 7.071068 1.875269 7.071068 0 
C 7.071068 -1.875269 6.326016 -3.673985 5 -5 
C 3.673985 -6.326016 1.875269 -7.071068 0 -7.071068 
C -1.875269 -7.071068 -3.673985 -6.326016 -5 -5 
C -6.326016 -3.673985 -7.071068 -1.875269 -7.071068 0 
C -7.071068 1.875269 -6.326016 3.673985 -5 5 
C -3.673985 6.326016 -1.875269 7.071068 0 7.071068 
z
" style="stroke: #333333; stroke-opacity: 0.8"/>
    </defs>
    <g clip-path="url(#pba18c56152)">
     <use xlink:href="#m9165f4607c" x="55.586342" y="199.236669" style="fill: #f7dc6f; fill-opacity: 0.8; stroke: #333333; stroke-opacity: 0.8"/>
    </g>
   </g>
   <g id="PathCollection_5">
    <defs>
     <path id="m05d29552da" d="M 0 7.071068 
C 1.875269 7.071068 3.673985 6.326016 5 5 
C 6.326016 3.673985 7.071068 1.875269 7.071068 0 
C 7.071068 -1.875269 6.326016 -3.673985 5 -5 
C 3.673985 -6.326016 1.875269 -7.071068 0 -7.071068 
C -1.875269 -7.071068 -3.673985 -6.326016 -5 -5 
C -6.326016 -3.673985 -7.071068 -1.875269 -7.071068 0 
C -7.071068 1.875269 -6.326016 3.673985 -5 5 
C -3.673985 6.326016 -1.875269 7.071068 0 7.071068 
z
" style="stroke: #333333; stroke-opacity: 0.8"/>
    </defs>
    <g clip-path="url(#pba18c56152)">
     <use xlink:href="#m05d29552da" x="500.028699" y="98.144314" style="fill: #98d8c8; fill-opacity: 0.8; stroke: #333333; stroke-opacity: 0.8"/>
    </g>
   </g>
   <g id="PathCollection_6">
    <g clip-path="url(#pba18c56152)">
     <use xlink:href="#mcb9e0495ee" x="125.614071" y="102.94822" style="fill: #4ecdc4; fill-opacity: 0.8; stroke: #333333; stroke-opacity: 0.8"/>
    </g>
   </g>
   <g id="PathCollection_7">
    <g clip-path="url(#pba18c56152)">
     <use xlink:href="#m05d29552da" x="646.978017" y="386.784763" style="fill: #98d8c8; fill-opacity: 0.8; stroke: #333333; stroke-opacity: 0.8"/>
    </g>
   </g>
   <g id="PathCollection_8">
    <g clip-path="url(#pba18c56152)">
     <use xlink:href="#m05d29552da" x="203.319661" y="506.053282" style="fill: #98d8c8; fill-opacity: 0.8; stroke: #333333; stroke-opacity: 0.8"/>
    </g>
   </g>
   <g id="PathCollection_9">
    <defs>
     <path id="m62efca7f45" d="M 0 7.071068 
C 1.875269 7.071068 3.673985 6.326016 5 5 
C 6.326016 3.673985 7.071068 1.875269 7.071068 0 
C 7.071068 -1.875269 6.326016 -3.673985 5 -5 
C 3.673985 -6.326016 1.875269 -7.071068 0 -7.071068 
C -1.875269 -7.071068 -3.673985 -6.326016 -5 -5 
C -6.326016 -3.673985 -7.071068 -1.875269 -7.071068 0 
C -7.071068 1.875269 -6.326016 3.673985 -5 5 
C -3.673985 6.326016 -1.875269 7.071068 0 7.071068 
z
" style="stroke: #333333; stroke-opacity: 0.8"/>
    </defs>
    <g clip-path="url(#pba18c56152)">
     <use xlink:href="#m62efca7f45" x="105.927463" y="373.8244" style="fill: #ff6b6b; fill-opacity: 0.8; stroke: #333333; stroke-opacity: 0.8"/>
    </g>
   </g>
   <g id="PathCollection_10">
    <g clip-path="url(#pba18c56152)">
     <use xlink:href="#m9165f4607c" x="498.30569" y="482.963432" style="fill: #f7dc6f; fill-opacity: 0.8; stroke: #333333; stroke-opacity: 0.8"/>
    </g>
   </g>
   <g id="PathCollection_11">
    <defs>
     <path id="mb1859c5821" d="M 0 7.071068 
C 1.875269 7.071068 3.673985 6.326016 5 5 
C 6.326016 3.673985 7.071068 1.875269 7.071068 0 
C 7.071068 -1.875269 6.326016 -3.673985 5 -5 
C 3.673985 -6.326016 1.875269 -7.071068 0 -7.071068 
C -1.875269 -7.071068 -3.673985 -6.326016 -5 -5 
C -6.326016 -3.673985 -7.071068 -1.875269 -7.071068 0 
C -7.071068 1.875269 -6.326016 3.673985 -5 5 
C -3.673985 6.326016 -1.875269 7.071068 0 7.071068 
z
" style="stroke: #333333; stroke-opacity: 0.8"/>
    </defs>
    <g clip-path="url(#pba18c56152)">
     <use xlink:href="#mb1859c5821" x="463.833737" y="518.56319" style="fill: #45b7d1; fill-opacity: 0.8; stroke: #333333; stroke-opacity: 0.8"/>
    </g>
   </g>
   <g id="PathCollection_12">
    <g clip-path="url(#pba18c56152)">
     <use xlink:href="#m9165f4607c" x="137.494703" y="446.140069" style="fill: #f7dc6f; fill-opacity: 0.8; stroke: #333333; stroke-opacity: 0.8"/>
    </g>
   </g>
   <g id="PathCollection_13">
    <g clip-path="url(#pba18c56152)">
     <use xlink:href="#m05d29552da" x="395.250629" y="68.288513" style="fill: #98d8c8; fill-opacity: 0.8; stroke: #333333; stroke-opacity: 0.8"/>
    </g>
   </g>
   <g id="PathCollection_14">
    <g clip-path="url(#pba18c56152)">
     <use xlink:href="#m62efca7f45" x="57.98742" y="279.621404" style="fill: #ff6b6b; fill-opacity: 0.8; stroke: #333333; stroke-opacity: 0.8"/>
    </g>
   </g>
   <g id="PathCollection_15">
    <g clip-path="url(#pba18c56152)">
     <use xlink:href="#mcb9e0495ee" x="410.155808" y="536.867614" style="fill: #4ecdc4; fill-opacity: 0.8; stroke: #333333; stroke-opacity: 0.8"/>
    </g>
   </g>
   <g id="PathCollection_16">
    <g clip-path="url(#pba18c56152)">
     <use xlink:href="#mcb9e0495ee" x="576.179878" y="451.842066" style="fill: #4ecdc4; fill-opacity: 0.8; stroke: #333333; stroke-opacity: 0.8"/>
    </g>
   </g>
   <g id="PathCollection_17">
    <g clip-path="url(#pba18c56152)">
     <use xlink:href="#m05d29552da" x="225.813665" y="62.458529" style="fill: #98d8c8; fill-opacity: 0.8; stroke: #333333; stroke-opacity: 0.8"/>
    </g>
   </g>
   <g id="PathCollection_18">
    <g clip-path="url(#pba18c56152)">
     <use xlink:href="#m9165f4607c" x="641.564067" y="168.720254" style="fill: #f7dc6f; fill-opacity: 0.8; stroke: #333333; stroke-opacity: 0.8"/>
    </g>
   </g>
   <g id="PathCollection_19">
    <g clip-path="url(#pba18c56152)">
     <use xlink:href="#m9165f4607c" x="298.254019" y="533.058713" style="fill: #f7dc6f; fill-opacity: 0.8; stroke: #333333; stroke-opacity: 0.8"/>
    </g>
   </g>
   <g id="PathCollection_20">
    <g clip-path="url(#pba18c56152)">
     <use xlink:href="#m62efca7f45" x="646.005374" y="300.963113" style="fill: #ff6b6b; fill-opacity: 0.8; stroke: #333333; stroke-opacity: 0.8"/>
    </g>
   </g>
   <g id="PathCollection_21">
    <g clip-path="url(#pba18c56152)">
     <use xlink:href="#m05d29552da" x="50.550205" y="322.830311" style="fill: #98d8c8; fill-opacity: 0.8; stroke: #333333; stroke-opacity: 0.8"/>
    </g>
   </g>
   <g id="PathCollection_22">
    <g clip-path="url(#pba18c56152)">
     <use xlink:href="#mb1859c5821" x="80.355527" y="150.894261" style="fill: #45b7d1; fill-opacity: 0.8; stroke: #333333; stroke-opacity: 0.8"/>
    </g>
   </g>
   <g id="PathCollection_23">
    <g clip-path="url(#pba18c56152)">
     <use xlink:href="#mcb9e0495ee" x="328.721253" y="76.809273" style="fill: #4ecdc4; fill-opacity: 0.8; stroke: #333333; stroke-opacity: 0.8"/>
    </g>
   </g>
   <g id="PathCollection_24">
    <g clip-path="url(#pba18c56152)">
     <use xlink:href="#m05d29552da" x="567.162259" y="198.559128" style="fill: #98d8c8; fill-opacity: 0.8; stroke: #333333; stroke-opacity: 0.8"/>
    </g>
   </g>
   <g id="PathCollection_25">
    <g clip-path="url(#pba18c56152)">
     <use xlink:href="#mcb9e0495ee" x="355.837599" y="527.54772" style="fill: #4ecdc4; fill-opacity: 0.8; stroke: #333333; stroke-opacity: 0.8"/>
    </g>
   </g>
   <g id="PathCollection_26">
    <g clip-path="url(#pba18c56152)">
     <use xlink:href="#mcb9e0495ee" x="673.854545" y="250.45631" style="fill: #4ecdc4; fill-opacity: 0.8; stroke: #333333; stroke-opacity: 0.8"/>
    </g>
   </g>
   <g id="PathCollection_27">
    <g clip-path="url(#pba18c56152)">
     <use xlink:href="#mb1859c5821" x="565.550856" y="96.896528" style="fill: #45b7d1; fill-opacity: 0.8; stroke: #333333; stroke-opacity: 0.8"/>
    </g>
   </g>
   <g id="PathCollection_28">
    <g clip-path="url(#pba18c56152)">
     <use xlink:href="#mcb9e0495ee" x="457.784752" y="65.680034" style="fill: #4ecdc4; fill-opacity: 0.8; stroke: #333333; stroke-opacity: 0.8"/>
    </g>
   </g>
   <g id="PathCollection_29">
    <g clip-path="url(#pba18c56152)">
     <use xlink:href="#m9165f4607c" x="83.633303" y="427.934085" style="fill: #f7dc6f; fill-opacity: 0.8; stroke: #333333; stroke-opacity: 0.8"/>
    </g>
   </g>
   <g id="PathCollection_30">
    <g clip-path="url(#pba18c56152)">
     <use xlink:href="#m05d29552da" x="53.062129" y="373.884544" style="fill: #98d8c8; fill-opacity: 0.8; stroke: #333333; stroke-opacity: 0.8"/>
    </g>
   </g>
   <g id="PathCollection_31">
    <g clip-path="url(#pba18c56152)">
     <use xlink:href="#mb1859c5821" x="257.111182" y="508.821167" style="fill: #45b7d1; fill-opacity: 0.8; stroke: #333333; stroke-opacity: 0.8"/>
    </g>
   </g>
   <g id="PathCollection_32">
    <g clip-path="url(#pba18c56152)">
     <use xlink:href="#m62efca7f45" x="657.048346" y="343.158457" style="fill: #ff6b6b; fill-opacity: 0.8; stroke: #333333; stroke-opacity: 0.8"/>
    </g>
   </g>
   <g id="PathCollection_33">
    <g clip-path="url(#pba18c56152)">
     <use xlink:href="#m62efca7f45" x="132.761091" y="156.214786" style="fill: #ff6b6b; fill-opacity: 0.8; stroke: #333333; stroke-opacity: 0.8"/>
    </g>
   </g>
   <g id="PathCollection_34">
    <g clip-path="url(#pba18c56152)">
     <use xlink:href="#mcb9e0495ee" x="184.51144" y="91.662986" style="fill: #4ecdc4; fill-opacity: 0.8; stroke: #333333; stroke-opacity: 0.8"/>
    </g>
   </g>
   <g id="PathCollection_35">
    <g clip-path="url(#pba18c56152)">
     <use xlink:href="#m9165f4607c" x="292.450113" y="48.794886" style="fill: #f7dc6f; fill-opacity: 0.8; stroke: #333333; stroke-opacity: 0.8"/>
    </g>
   </g>
   <g id="PathCollection_36">
    <g clip-path="url(#pba18c56152)">
     <use xlink:href="#m62efca7f45" x="618.162164" y="424.793917" style="fill: #ff6b6b; fill-opacity: 0.8; stroke: #333333; stroke-opacity: 0.8"/>
    </g>
   </g>
   <g id="PathCollection_37">
    <g clip-path="url(#pba18c56152)">
     <use xlink:href="#m05d29552da" x="38.945455" y="243.952253" style="fill: #98d8c8; fill-opacity: 0.8; stroke: #333333; stroke-opacity: 0.8"/>
    </g>
   </g>
   <g id="PathCollection_38">
    <g clip-path="url(#pba18c56152)">
     <use xlink:href="#m05d29552da" x="582.585774" y="140.921848" style="fill: #98d8c8; fill-opacity: 0.8; stroke: #333333; stroke-opacity: 0.8"/>
    </g>
   </g>
   <g id="PathCollection_39">
    <g clip-path="url(#pba18c56152)">
     <use xlink:href="#mb1859c5821" x="548.228516" y="495.650964" style="fill: #45b7d1; fill-opacity: 0.8; stroke: #333333; stroke-opacity: 0.8"/>
    </g>
   </g>
   <g id="text_1">
    <!-- "黄飞鸿" 关联网络 -->
    <g transform="translate(298.022187 18.39125) scale(0.14 -0.14)">
     <defs>
      <path id="MicrosoftYaHei-Bold-22" d="M 1434 4841 
L 1334 3347 
L 681 3347 
L 584 4841 
L 1434 4841 
z
M 2747 4841 
L 2641 3344 
L 1997 3344 
L 1894 4841 
L 2747 4841 
z
" transform="scale(0.015625)"/>
      <path id="MicrosoftYaHei-Bold-9ec4" d="M 781 2828 
L 2813 2828 
L 2813 3147 
L 175 3147 
L 175 3797 
L 1688 3797 
L 1688 4178 
L 425 4178 
L 425 4803 
L 1688 4803 
L 1688 5347 
L 2513 5347 
L 2513 4803 
L 3888 4803 
L 3888 5347 
L 4713 5347 
L 4713 4803 
L 5975 4803 
L 5975 4178 
L 4713 4178 
L 4713 3797 
L 6250 3797 
L 6250 3147 
L 3588 3147 
L 3588 2828 
L 5613 2828 
L 5613 384 
L 781 384 
L 781 2828 
z
M 2513 3797 
L 3888 3797 
L 3888 4178 
L 2513 4178 
L 2513 3797 
z
M 4781 2241 
L 3588 2241 
L 3588 1878 
L 4781 1878 
L 4781 2241 
z
M 1619 1878 
L 2813 1878 
L 2813 2241 
L 1619 2241 
L 1619 1878 
z
M 4781 978 
L 4781 1341 
L 3588 1341 
L 3588 978 
L 4781 978 
z
M 1619 978 
L 2813 978 
L 2813 1341 
L 1619 1341 
L 1619 978 
z
M 2363 341 
L 2788 -309 
Q 1713 -603 544 -859 
Q 406 -528 200 -109 
Q 1350 97 2363 341 
z
M 3988 328 
Q 5150 128 6213 -109 
L 5881 -859 
Q 5013 -622 3631 -334 
L 3988 328 
z
" transform="scale(0.015625)"/>
      <path id="MicrosoftYaHei-Bold-98de" d="M 5238 4872 
L 6063 4041 
L 4350 2844 
L 5881 2128 
L 5463 1291 
Q 4728 1728 3919 2166 
Q 4069 822 4419 455 
Q 4769 88 5041 88 
Q 5128 88 5215 141 
Q 5303 194 5425 603 
Q 5547 1013 5594 1278 
Q 6106 972 6375 859 
Q 6150 -75 5861 -454 
Q 5572 -834 5069 -834 
Q 4081 -834 3522 80 
Q 2963 994 2956 4241 
L 100 4241 
L 100 5053 
L 3869 5053 
Q 3844 4341 3844 3494 
Q 4619 4181 5238 4872 
z
" transform="scale(0.015625)"/>
      <path id="MicrosoftYaHei-Bold-9e3f" d="M 4081 5366 
L 4944 5253 
Q 4850 4997 4763 4791 
L 5950 4791 
Q 5931 3934 5888 3191 
Q 5806 2434 5188 2391 
Q 4963 2372 4369 2366 
Q 4300 2728 4200 3084 
Q 4650 3047 4844 3059 
Q 5206 3041 5206 3397 
Q 5225 3616 5231 4141 
L 3906 4141 
L 3906 2078 
L 6144 2078 
Q 6125 941 6081 166 
Q 6056 -747 5213 -778 
Q 4944 -797 4131 -809 
Q 4088 -453 3975 -41 
Q 4694 -72 4956 -66 
Q 5356 -72 5363 291 
Q 5400 784 5413 1428 
L 3200 1428 
L 3200 4791 
L 3956 4791 
Q 4006 5028 4081 5366 
z
M 5113 347 
L 2950 347 
L 2950 816 
Q 2238 609 1475 353 
L 1244 1116 
Q 1525 1191 1813 1272 
L 1813 3728 
L 1381 3728 
L 1381 4441 
L 3025 4441 
L 3025 3728 
L 2519 3728 
L 2519 1478 
Q 2756 1547 3000 1622 
Q 3006 1309 3031 1003 
L 5113 1003 
L 5113 347 
z
M 581 1966 
Q 994 1791 1288 1672 
Q 1075 353 900 -828 
L 144 -572 
Q 375 516 581 1966 
z
M 613 3616 
Q 1188 3084 1419 2828 
L 806 2253 
Q 544 2553 63 3066 
L 613 3616 
z
M 700 5278 
Q 1144 4859 1444 4547 
L 850 3997 
Q 556 4341 150 4784 
L 700 5278 
z
M 4100 3753 
L 4525 4103 
Q 4869 3772 5131 3484 
L 4675 3097 
Q 4438 3391 4100 3753 
z
" transform="scale(0.015625)"/>
      <path id="MicrosoftYaHei-Bold-20" transform="scale(0.015625)"/>
      <path id="MicrosoftYaHei-Bold-5173" d="M 156 2459 
L 2725 2459 
Q 2725 2491 2741 3266 
L 481 3266 
L 481 4066 
L 1834 4066 
Q 1475 4538 1219 4841 
L 1925 5341 
Q 2188 5053 2813 4347 
L 2406 4066 
L 3488 4066 
Q 3975 4731 4331 5341 
L 5231 4872 
L 4550 4066 
L 5938 4066 
L 5938 3266 
L 3672 3266 
Q 3672 3009 3666 2459 
L 6250 2459 
L 6250 1659 
L 3819 1659 
Q 4416 441 6300 72 
Q 5856 -503 5663 -797 
Q 3906 -300 3203 1031 
Q 2600 -128 781 -866 
Q 488 -509 94 -72 
Q 2059 541 2556 1659 
L 156 1659 
L 156 2459 
z
" transform="scale(0.015625)"/>
      <path id="MicrosoftYaHei-Bold-8054" d="M 3688 5328 
Q 3988 4934 4294 4422 
L 3709 4128 
L 4544 4128 
Q 4888 4728 5169 5366 
L 5975 5016 
L 5428 4128 
L 6069 4128 
L 6069 3391 
L 4831 3391 
Q 4831 2753 4825 2516 
L 6275 2516 
L 6275 1778 
L 4988 1778 
Q 5338 566 6325 16 
Q 6069 -359 5831 -828 
Q 4906 -106 4513 1278 
Q 4256 -53 3231 -872 
Q 2950 -497 2619 -134 
Q 3641 494 3925 1778 
L 2800 1778 
L 2800 2516 
L 4022 2516 
Q 4031 2675 4031 3391 
L 2950 3391 
L 2950 4128 
L 3556 4128 
Q 3319 4619 3050 5003 
L 3688 5328 
z
M 231 -128 
L 88 716 
Q 244 731 413 753 
L 413 4241 
L 150 4241 
L 150 4978 
L 2825 4978 
L 2825 4241 
L 2563 4241 
L 2563 1084 
Q 2747 1116 2938 1153 
Q 2888 734 2869 353 
Q 2731 331 2563 300 
L 2563 -834 
L 1813 -834 
L 1813 166 
L 231 -128 
z
M 1163 3591 
L 1813 3591 
L 1813 4241 
L 1163 4241 
L 1163 3591 
z
M 1163 2266 
L 1813 2266 
L 1813 2916 
L 1163 2916 
L 1163 2266 
z
M 1813 953 
L 1813 1591 
L 1163 1591 
L 1163 853 
L 1813 953 
z
" transform="scale(0.015625)"/>
      <path id="MicrosoftYaHei-Bold-7f51" d="M 1781 4059 
L 2334 2925 
Q 2581 3484 2800 4091 
L 3222 3897 
L 3556 4047 
L 4063 2950 
Q 4297 3509 4513 4116 
L 5188 3828 
Q 4872 2891 4488 2028 
L 5144 566 
L 4438 216 
L 4059 1128 
Q 3756 528 3425 -34 
Q 3284 75 3147 175 
L 2813 9 
L 2328 1159 
Q 1969 481 1575 -103 
Q 1419 44 1194 228 
L 1194 -809 
L 356 -809 
L 356 5078 
L 6038 5078 
L 6038 278 
Q 6038 -206 5853 -467 
Q 5669 -728 5336 -772 
Q 5003 -816 4094 -816 
Q 4006 -309 3900 59 
Q 4344 16 4800 16 
Q 5200 16 5200 409 
L 5200 4297 
L 1194 4297 
L 1194 3753 
L 1781 4059 
z
M 1194 3628 
L 1194 775 
Q 1584 1381 1928 2066 
Q 1559 2884 1194 3628 
z
M 3216 3088 
Q 2997 2534 2759 2025 
L 3194 1091 
Q 3438 1550 3669 2047 
L 3216 3088 
z
" transform="scale(0.015625)"/>
      <path id="MicrosoftYaHei-Bold-7edc" d="M 1025 3353 
Q 1288 3366 1400 3366 
Q 1644 3791 1900 4334 
L 2638 3997 
Q 2019 2922 1338 1784 
Q 1806 1847 2313 1922 
Q 2269 1503 2263 1147 
Q 975 978 481 859 
L 238 1559 
Q 550 1878 988 2641 
Q 631 2616 325 2578 
L 88 3284 
Q 531 3822 1163 5328 
L 1938 5028 
Q 1488 4172 1025 3353 
z
M 2675 -859 
L 2675 1666 
L 5900 1666 
L 5900 -859 
L 5088 -859 
L 5088 -572 
L 3488 -572 
L 3488 -859 
L 2675 -859 
z
M 238 -497 
L 94 378 
Q 875 459 2463 703 
Q 2425 178 2431 -159 
Q 1038 -353 238 -497 
z
M 5088 884 
L 3488 884 
L 3488 209 
L 5088 209 
L 5088 884 
z
M 2494 3609 
Q 3225 4434 3694 5328 
L 4538 5191 
Q 4394 4934 4244 4703 
L 6038 4703 
L 6038 3953 
Q 5681 3297 5056 2791 
Q 5625 2584 6319 2478 
Q 6188 2009 6131 1666 
Q 5019 1909 4288 2297 
Q 3513 1922 2463 1653 
Q 2288 2134 2150 2397 
Q 2975 2572 3569 2803 
Q 3356 2997 3163 3241 
Q 3006 3084 2894 2972 
Q 2744 3247 2494 3609 
z
M 3781 3972 
Q 3725 3897 3656 3809 
Q 3919 3441 4288 3172 
Q 4800 3509 5063 3972 
L 3781 3972 
z
" transform="scale(0.015625)"/>
     </defs>
     <use xlink:href="#MicrosoftYaHei-Bold-22"/>
     <use xlink:href="#MicrosoftYaHei-Bold-9ec4" transform="translate(52.099609 0)"/>
     <use xlink:href="#MicrosoftYaHei-Bold-98de" transform="translate(152.099609 0)"/>
     <use xlink:href="#MicrosoftYaHei-Bold-9e3f" transform="translate(252.099609 0)"/>
     <use xlink:href="#MicrosoftYaHei-Bold-22" transform="translate(352.099609 0)"/>
     <use xlink:href="#MicrosoftYaHei-Bold-20" transform="translate(404.199219 0)"/>
     <use xlink:href="#MicrosoftYaHei-Bold-5173" transform="translate(433.984375 0)"/>
     <use xlink:href="#MicrosoftYaHei-Bold-8054" transform="translate(533.984375 0)"/>
     <use xlink:href="#MicrosoftYaHei-Bold-7f51" transform="translate(633.984375 0)"/>
     <use xlink:href="#MicrosoftYaHei-Bold-7edc" transform="translate(733.984375 0)"/>
    </g>
   </g>
   <g id="text_2">
    <!-- 黄飞鸿 -->
    <g transform="translate(338.878557 291.710005) scale(0.08 -0.08)">
     <defs>
      <path id="MicrosoftYaHei-9ec4" d="M 900 2759 
L 2963 2759 
L 2963 3303 
L 175 3303 
L 175 3728 
L 1869 3728 
L 1869 4328 
L 369 4328 
L 369 4753 
L 1869 4753 
L 1869 5341 
L 2344 5341 
L 2344 4753 
L 4069 4753 
L 4069 5341 
L 4544 5341 
L 4544 4753 
L 6044 4753 
L 6044 4328 
L 4544 4328 
L 4544 3728 
L 6250 3728 
L 6250 3303 
L 3438 3303 
L 3438 2759 
L 5506 2759 
L 5506 172 
L 5038 172 
L 5038 359 
L 1369 359 
L 1369 172 
L 900 172 
L 900 2759 
z
M 3744 -134 
L 3925 241 
Q 5250 -109 6156 -422 
L 5956 -847 
Q 4788 -453 3744 -134 
z
M 2344 3728 
L 4069 3728 
L 4069 4328 
L 2344 4328 
L 2344 3728 
z
M 2325 241 
L 2600 -153 
Q 1513 -622 456 -909 
Q 369 -722 238 -484 
Q 1363 -209 2325 241 
z
M 5038 2347 
L 3438 2347 
L 3438 1759 
L 5038 1759 
L 5038 2347 
z
M 3438 772 
L 5038 772 
L 5038 1359 
L 3438 1359 
L 3438 772 
z
M 1369 1759 
L 2963 1759 
L 2963 2347 
L 1369 2347 
L 1369 1759 
z
M 1369 772 
L 2963 772 
L 2963 1359 
L 1369 1359 
L 1369 772 
z
" transform="scale(0.015625)"/>
      <path id="MicrosoftYaHei-98de" d="M 5788 1109 
Q 6100 978 6313 916 
Q 6213 303 6038 -166 
Q 5838 -653 5381 -653 
Q 4806 -653 4363 -434 
Q 3263 172 3213 2478 
Q 3200 3266 3206 4416 
L 100 4416 
L 100 4878 
L 3750 4878 
Q 3725 4047 3725 3219 
Q 4850 4091 5381 4628 
L 5831 4172 
Q 5338 3822 4050 2906 
Q 5059 2447 5981 1972 
L 5681 1472 
Q 4794 2016 3728 2566 
Q 3731 284 4856 -66 
Q 5456 -272 5600 172 
Q 5706 528 5788 1109 
z
" transform="scale(0.015625)"/>
      <path id="MicrosoftYaHei-9e3f" d="M 4225 5334 
L 4725 5241 
Q 4644 4953 4563 4691 
L 5831 4691 
Q 5806 3753 5769 3203 
Q 5725 2378 4869 2378 
Q 4588 2378 4225 2391 
Q 4200 2559 4144 2841 
Q 4575 2797 4825 2797 
Q 5300 2797 5338 3297 
Q 5369 3697 5381 4278 
L 3831 4278 
L 3831 2009 
L 6144 2009 
Q 6100 928 6056 253 
Q 5969 -759 4975 -759 
Q 4538 -759 3900 -741 
Q 3850 -491 3769 -234 
Q 4431 -284 4850 -284 
Q 5550 -284 5594 316 
Q 5644 834 5663 1572 
L 3381 1572 
L 3381 4691 
L 4063 4691 
Q 4156 5009 4225 5334 
z
M 1275 1022 
Q 1650 1109 2044 1209 
L 2044 3841 
L 1381 3841 
L 1381 4278 
L 3169 4278 
L 3169 3841 
L 2506 3841 
L 2506 1334 
Q 2844 1434 3194 1541 
Q 3206 1297 3238 1066 
Q 2413 834 1406 528 
L 1275 1022 
z
M 806 1853 
Q 1050 1747 1281 1666 
Q 1025 534 769 -797 
L 256 -647 
Q 581 666 806 1853 
z
M 3088 953 
L 5325 953 
L 5325 516 
L 3088 516 
L 3088 953 
z
M 450 3628 
Q 863 3259 1306 2803 
Q 1075 2584 931 2453 
Q 531 2916 125 3328 
L 450 3628 
z
M 619 5222 
Q 1019 4841 1419 4403 
Q 1213 4222 1031 4072 
Q 688 4503 281 4928 
L 619 5222 
z
M 4069 3828 
L 4363 4072 
Q 4800 3641 5031 3384 
L 4700 3103 
Q 4331 3547 4069 3828 
z
" transform="scale(0.015625)"/>
     </defs>
     <use xlink:href="#MicrosoftYaHei-9ec4"/>
     <use xlink:href="#MicrosoftYaHei-98de" transform="translate(100 0)"/>
     <use xlink:href="#MicrosoftYaHei-9e3f" transform="translate(200 0)"/>
    </g>
   </g>
   <g id="text_3">
    <!-- 珠江 -->
    <g transform="translate(630.657489 224.540025) scale(0.08 -0.08)">
     <defs>
      <path id="MicrosoftYaHei-73e0" d="M 2338 2572 
L 3919 2572 
L 3919 3722 
L 3022 3722 
Q 2881 3269 2725 2884 
Q 2525 2972 2269 3047 
Q 2656 3897 2881 4972 
L 3331 4878 
Q 3244 4500 3150 4159 
L 3919 4159 
L 3919 5316 
L 4381 5316 
L 4381 4159 
L 5856 4159 
L 5856 3722 
L 4381 3722 
L 4381 2572 
L 6069 2572 
L 6069 2134 
L 4578 2134 
Q 5216 847 6375 72 
Q 6150 -103 5956 -322 
Q 4941 566 4381 1841 
L 4381 -791 
L 3919 -791 
L 3919 1806 
Q 3309 525 2144 -397 
Q 1975 -191 1769 -16 
Q 3009 838 3713 2134 
L 2338 2134 
L 2338 2572 
z
M 81 484 
Q 519 622 938 763 
L 938 2453 
L 206 2453 
L 206 2891 
L 938 2891 
L 938 4228 
L 119 4228 
L 119 4666 
L 2175 4666 
L 2175 4228 
L 1388 4228 
L 1388 2891 
L 2100 2891 
L 2100 2453 
L 1388 2453 
L 1388 919 
Q 1797 1063 2188 1209 
Q 2200 928 2219 722 
Q 1275 397 250 -3 
L 81 484 
z
" transform="scale(0.015625)"/>
      <path id="MicrosoftYaHei-6c5f" d="M 1781 97 
L 3781 97 
L 3781 4228 
L 2156 4228 
L 2156 4691 
L 6038 4691 
L 6038 4228 
L 4306 4228 
L 4306 97 
L 6313 97 
L 6313 -366 
L 1781 -366 
L 1781 97 
z
M 1169 1803 
Q 1419 1641 1681 1509 
Q 1231 391 800 -816 
L 269 -516 
Q 763 522 1169 1803 
z
M 394 3616 
Q 1031 3228 1650 2772 
L 1300 2316 
Q 675 2828 94 3209 
L 394 3616 
z
M 713 5209 
Q 1294 4816 1919 4316 
L 1581 3891 
Q 994 4416 406 4847 
L 713 5209 
z
" transform="scale(0.015625)"/>
     </defs>
     <use xlink:href="#MicrosoftYaHei-73e0"/>
     <use xlink:href="#MicrosoftYaHei-6c5f" transform="translate(100 0)"/>
    </g>
   </g>
   <g id="text_4">
    <!-- 广东 -->
    <g transform="translate(143.45391 482.238903) scale(0.08 -0.08)">
     <defs>
      <path id="MicrosoftYaHei-5e7f" d="M 975 4384 
L 3466 4384 
Q 3291 4684 3000 5097 
L 3456 5359 
Q 3763 4966 4000 4591 
L 3650 4384 
L 6213 4384 
L 6213 3878 
L 1531 3878 
L 1531 2328 
Q 1538 366 513 -797 
Q 369 -641 63 -403 
Q 975 591 975 2391 
L 975 4384 
z
" transform="scale(0.015625)"/>
      <path id="MicrosoftYaHei-4e1c" d="M 706 1884 
L 706 2359 
L 1422 4022 
L 194 4022 
L 194 4497 
L 1625 4497 
L 1994 5353 
L 2531 5241 
L 2206 4497 
L 6206 4497 
L 6206 4022 
L 2000 4022 
L 1275 2359 
L 3156 2359 
L 3156 3728 
L 3681 3728 
L 3681 2359 
L 5913 2359 
L 5913 1884 
L 3681 1884 
L 3681 41 
Q 3681 -741 2869 -741 
Q 2456 -741 1931 -734 
Q 1894 -491 1838 -172 
Q 2250 -225 2725 -228 
Q 3156 -231 3156 216 
L 3156 1884 
L 706 1884 
z
M 1619 1509 
L 2038 1191 
Q 1325 353 413 -534 
Q 250 -359 56 -184 
Q 888 603 1619 1509 
z
M 4288 1091 
L 4638 1434 
Q 5500 722 6363 -59 
L 5975 -453 
Q 5119 391 4288 1091 
z
" transform="scale(0.015625)"/>
     </defs>
     <use xlink:href="#MicrosoftYaHei-5e7f"/>
     <use xlink:href="#MicrosoftYaHei-4e1c" transform="translate(100 0)"/>
    </g>
   </g>
   <g id="text_5">
    <!-- 武艺 -->
    <g transform="translate(47.586342 197.247919) scale(0.08 -0.08)">
     <defs>
      <path id="MicrosoftYaHei-6b66" d="M 163 3453 
L 3944 3453 
Q 3900 4272 3888 5259 
L 4375 5259 
Q 4378 4272 4422 3453 
L 6288 3453 
L 6288 3016 
L 4450 3016 
Q 4569 988 4869 353 
Q 5169 -281 5497 -228 
Q 5675 -103 5723 181 
Q 5772 466 5856 1084 
Q 6106 984 6319 903 
Q 6263 291 6144 -166 
Q 5975 -722 5506 -722 
Q 4950 -681 4622 -159 
Q 4100 516 3972 3016 
L 163 3016 
L 163 3453 
z
M 2138 2866 
L 2594 2866 
L 2594 1916 
L 3763 1916 
L 3763 1478 
L 2594 1478 
L 2594 206 
Q 3334 288 4144 384 
L 4200 -59 
Q 2138 -303 250 -478 
L 175 -16 
Q 497 9 838 38 
L 838 2466 
L 1294 2466 
L 1294 78 
Q 1703 116 2138 159 
L 2138 2866 
z
M 700 4753 
L 3488 4753 
L 3488 4316 
L 700 4316 
L 700 4753 
z
M 4731 4684 
L 5006 4997 
Q 5519 4647 6038 4222 
L 5719 3859 
Q 5231 4322 4731 4684 
z
" transform="scale(0.015625)"/>
      <path id="MicrosoftYaHei-827a" d="M 5644 1322 
Q 5825 1253 6194 1153 
Q 6100 366 6013 91 
Q 5881 -572 4569 -597 
L 3238 -597 
L 1763 -597 
Q 925 -572 719 -109 
Q 544 391 1156 872 
Q 2294 1672 4094 2566 
L 806 2566 
L 806 3016 
L 5150 3016 
L 5150 2541 
Q 2925 1472 1594 547 
Q 1206 259 1281 59 
Q 1369 -122 1894 -141 
L 3125 -144 
L 4431 -128 
Q 5456 -116 5525 328 
Q 5588 522 5644 1322 
z
M 138 4491 
L 1863 4491 
L 1863 5328 
L 2369 5328 
L 2369 4491 
L 4031 4491 
L 4031 5328 
L 4538 5328 
L 4538 4491 
L 6263 4491 
L 6263 4034 
L 4538 4034 
L 4538 3353 
L 4031 3353 
L 4031 4034 
L 2369 4034 
L 2369 3359 
L 1863 3359 
L 1863 4034 
L 138 4034 
L 138 4491 
z
" transform="scale(0.015625)"/>
     </defs>
     <use xlink:href="#MicrosoftYaHei-6b66"/>
     <use xlink:href="#MicrosoftYaHei-827a" transform="translate(100 0)"/>
    </g>
   </g>
   <g id="text_6">
    <!-- 五十年 -->
    <g transform="translate(488.028699 96.155564) scale(0.08 -0.08)">
     <defs>
      <path id="MicrosoftYaHei-4e94" d="M 125 -34 
L 1581 -34 
L 1944 2416 
L 519 2416 
L 519 2891 
L 2019 2891 
L 2244 4409 
L 350 4409 
L 350 4884 
L 6013 4884 
L 6013 4409 
L 2769 4409 
L 2544 2891 
L 5294 2891 
L 5294 -34 
L 6306 -34 
L 6306 -503 
L 125 -503 
L 125 -34 
z
M 4769 2416 
L 2475 2416 
L 2106 -34 
L 4769 -34 
L 4769 2416 
z
" transform="scale(0.015625)"/>
      <path id="MicrosoftYaHei-5341" d="M 156 2978 
L 2913 2978 
L 2913 5284 
L 3488 5284 
L 3488 2978 
L 6250 2978 
L 6250 2472 
L 3488 2472 
L 3488 -828 
L 2913 -828 
L 2913 2472 
L 156 2472 
L 156 2978 
z
" transform="scale(0.015625)"/>
      <path id="MicrosoftYaHei-5e74" d="M 119 1278 
L 1125 1278 
L 1125 3066 
L 3338 3066 
L 3338 4178 
L 1500 4178 
Q 1078 3419 556 2778 
Q 394 2953 169 3128 
Q 1056 4128 1500 5372 
L 2013 5228 
Q 1881 4919 1738 4628 
L 6038 4628 
L 6038 4178 
L 3844 4178 
L 3844 3066 
L 5931 3066 
L 5931 2628 
L 3844 2628 
L 3844 1278 
L 6319 1278 
L 6319 828 
L 3844 828 
L 3844 -859 
L 3338 -859 
L 3338 828 
L 119 828 
L 119 1278 
z
M 1619 1278 
L 3338 1278 
L 3338 2628 
L 1619 2628 
L 1619 1278 
z
" transform="scale(0.015625)"/>
     </defs>
     <use xlink:href="#MicrosoftYaHei-4e94"/>
     <use xlink:href="#MicrosoftYaHei-5341" transform="translate(100 0)"/>
     <use xlink:href="#MicrosoftYaHei-5e74" transform="translate(200 0)"/>
    </g>
   </g>
   <g id="text_7">
    <!-- 樵山 -->
    <g transform="translate(117.614071 100.95947) scale(0.08 -0.08)">
     <defs>
      <path id="MicrosoftYaHei-6a35" d="M 2594 666 
L 2594 3303 
Q 2431 3041 2269 2816 
Q 2138 3028 1969 3222 
Q 2694 4191 3119 5328 
L 3569 5178 
Q 3388 4778 3213 4416 
L 6188 4416 
L 6188 4016 
L 4706 4016 
L 4706 3359 
L 5988 3359 
L 5988 2959 
L 4706 2959 
L 4706 2303 
L 5988 2303 
L 5988 1903 
L 4706 1903 
L 4706 1234 
L 6181 1234 
L 6181 834 
L 3031 834 
L 3031 666 
L 2594 666 
z
M 3031 1234 
L 4269 1234 
L 4269 1903 
L 3031 1903 
L 3031 1234 
z
M 3031 2303 
L 4269 2303 
L 4269 2959 
L 3031 2959 
L 3031 2303 
z
M 3031 3359 
L 4269 3359 
L 4269 4016 
L 3031 4016 
L 3031 3359 
z
M 2475 522 
L 2919 372 
Q 2706 -228 2394 -884 
Q 2150 -747 1963 -672 
Q 2281 -153 2475 522 
z
M 5788 609 
Q 6075 78 6325 -584 
L 5906 -766 
Q 5619 -59 5388 434 
L 5788 609 
z
M 4725 516 
Q 4950 -22 5125 -553 
L 4694 -716 
Q 4525 -172 4325 372 
L 4725 516 
z
M 3694 453 
Q 3875 -59 4019 -591 
L 3563 -734 
Q 3438 -209 3275 334 
L 3694 453 
z
M 4125 5134 
L 4500 5341 
Q 4775 4966 4969 4653 
L 4556 4447 
Q 4394 4747 4125 5134 
z
M 2144 3903 
L 2144 3491 
L 1444 3491 
L 1444 2666 
L 1681 2859 
Q 2038 2478 2344 2091 
L 2006 1809 
Q 1719 2216 1444 2541 
L 1444 -853 
L 1006 -853 
L 1006 2578 
Q 669 1428 275 841 
Q 188 1109 63 1391 
Q 594 2297 919 3491 
L 138 3491 
L 138 3903 
L 1006 3903 
L 1006 5291 
L 1444 5291 
L 1444 3903 
L 2144 3903 
z
" transform="scale(0.015625)"/>
      <path id="MicrosoftYaHei-5c71" d="M 5238 -791 
L 5238 -397 
L 638 -397 
L 638 4084 
L 1169 4084 
L 1169 78 
L 2925 78 
L 2925 5247 
L 3469 5247 
L 3469 78 
L 5238 78 
L 5238 4084 
L 5775 4084 
L 5775 -791 
L 5238 -791 
z
" transform="scale(0.015625)"/>
     </defs>
     <use xlink:href="#MicrosoftYaHei-6a35"/>
     <use xlink:href="#MicrosoftYaHei-5c71" transform="translate(100 0)"/>
    </g>
   </g>
   <g id="text_8">
    <!-- 十年 -->
    <g transform="translate(638.978017 384.796013) scale(0.08 -0.08)">
     <use xlink:href="#MicrosoftYaHei-5341"/>
     <use xlink:href="#MicrosoftYaHei-5e74" transform="translate(100 0)"/>
    </g>
   </g>
   <g id="text_9">
    <!-- 少年 -->
    <g transform="translate(195.319661 504.064532) scale(0.08 -0.08)">
     <defs>
      <path id="MicrosoftYaHei-5c11" d="M 1631 4428 
L 2144 4228 
Q 1463 2722 669 1484 
Q 475 1609 200 1766 
Q 994 2916 1631 4428 
z
M 4138 4266 
L 4531 4566 
Q 5531 3491 6331 2528 
L 5881 2166 
Q 5006 3278 4138 4266 
z
M 2925 5284 
L 3463 5284 
L 3463 1359 
L 2925 1359 
L 2925 5284 
z
M 4988 2416 
L 5444 2116 
Q 3631 -216 413 -859 
Q 275 -609 100 -359 
Q 3350 272 4988 2416 
z
" transform="scale(0.015625)"/>
     </defs>
     <use xlink:href="#MicrosoftYaHei-5c11"/>
     <use xlink:href="#MicrosoftYaHei-5e74" transform="translate(100 0)"/>
    </g>
   </g>
   <g id="text_10">
    <!-- 梁宽 -->
    <g transform="translate(97.927463 371.83565) scale(0.08 -0.08)">
     <defs>
      <path id="MicrosoftYaHei-6881" d="M 6325 -91 
Q 6169 -291 5981 -572 
Q 4328 -84 3406 972 
L 3406 -866 
L 2931 -866 
L 2931 988 
Q 2059 50 419 -641 
Q 244 -366 88 -228 
Q 1478 228 2422 1034 
L 200 1034 
L 200 1453 
L 2931 1453 
L 2931 1984 
L 3406 1984 
L 3406 1453 
L 6225 1453 
L 6225 1034 
L 3850 1034 
Q 4759 219 6325 -91 
z
M 2494 4991 
L 5425 4991 
Q 5400 4478 5375 4006 
L 5731 4172 
Q 6044 3622 6319 3003 
L 5925 2791 
Q 5703 3341 5372 3934 
Q 5347 3425 5319 2959 
Q 5263 2028 4400 2028 
Q 4125 2028 3713 2047 
Q 3681 2322 3619 2541 
Q 3994 2491 4350 2484 
Q 4831 2466 4869 3003 
Q 4925 3734 4950 4572 
L 3934 4572 
Q 3866 3466 3556 2941 
Q 3238 2341 2219 1797 
Q 2081 2003 1906 2178 
Q 2869 2641 3163 3166 
Q 3447 3622 3497 4572 
L 2494 4572 
L 2494 4991 
z
M 1725 3378 
Q 1838 3172 2000 2953 
Q 1313 2272 806 1747 
L 438 2109 
Q 1088 2666 1725 3378 
z
M 1006 5316 
Q 1631 5009 2119 4722 
L 1825 4316 
Q 1375 4609 756 4947 
L 1006 5316 
z
M 425 4334 
Q 925 4103 1506 3784 
L 1238 3353 
Q 650 3709 188 3934 
L 425 4334 
z
M 2063 3241 
Q 2413 3728 2663 4234 
L 3050 4047 
Q 2750 3453 2425 3009 
Q 2313 3091 2063 3241 
z
" transform="scale(0.015625)"/>
      <path id="MicrosoftYaHei-5bbd" d="M 3356 1797 
Q 3344 1394 3269 1066 
L 3694 1066 
L 3694 134 
Q 3694 -291 4138 -291 
L 5150 -291 
Q 5619 -291 5713 -3 
Q 5781 228 5825 741 
Q 6050 641 6313 559 
Q 6238 97 6163 -172 
Q 6013 -722 5331 -722 
L 4000 -722 
Q 3213 -722 3213 72 
L 3213 850 
Q 2913 -409 406 -853 
Q 288 -609 144 -391 
Q 1656 -128 2288 353 
Q 2856 797 2869 1797 
L 3356 1797 
z
M 225 3528 
L 1925 3528 
L 1925 4022 
L 2413 4022 
L 2413 3528 
L 3988 3528 
L 3988 4022 
L 4475 4022 
L 4475 3528 
L 6200 3528 
L 6200 3091 
L 4475 3091 
L 4475 2622 
L 3988 2622 
L 3988 3091 
L 2413 3091 
L 2413 2622 
L 1925 2622 
L 1925 3091 
L 225 3091 
L 225 3528 
z
M 875 2434 
L 5338 2434 
L 5338 397 
L 4850 397 
L 4850 2003 
L 1363 2003 
L 1363 347 
L 875 347 
L 875 2434 
z
M 363 4666 
L 3003 4666 
Q 2869 4909 2719 5134 
L 3194 5347 
Q 3428 4991 3603 4666 
L 6031 4666 
L 6031 3672 
L 5531 3672 
L 5531 4228 
L 863 4228 
L 863 3672 
L 363 3672 
L 363 4666 
z
" transform="scale(0.015625)"/>
     </defs>
     <use xlink:href="#MicrosoftYaHei-6881"/>
     <use xlink:href="#MicrosoftYaHei-5bbd" transform="translate(100 0)"/>
    </g>
   </g>
   <g id="text_11">
    <!-- 粤剧 -->
    <g transform="translate(490.30569 480.974682) scale(0.08 -0.08)">
     <defs>
      <path id="MicrosoftYaHei-7ca4" d="M 1206 1572 
L 769 1572 
L 769 4759 
L 2669 4759 
Q 2813 5053 2906 5347 
L 3394 5234 
Q 3238 4934 3138 4759 
L 5638 4759 
L 5638 1572 
L 5200 1572 
L 5200 1803 
L 1206 1803 
L 1206 1572 
z
M 5200 4447 
L 1206 4447 
L 1206 2116 
L 5200 2116 
L 5200 4447 
z
M 188 1366 
L 6213 1366 
L 6213 1028 
L 1856 1028 
L 1694 578 
L 5400 578 
Q 5363 128 5331 -109 
Q 5250 -766 4350 -766 
Q 3769 -766 2925 -753 
Q 2881 -534 2794 -322 
Q 3594 -366 4231 -366 
Q 4800 -366 4844 -53 
Q 4869 103 4881 241 
L 1094 241 
L 1350 1028 
L 188 1028 
L 188 1366 
z
M 1400 2547 
Q 2200 2822 2763 3241 
L 1506 3241 
L 1506 3553 
L 3000 3553 
L 3000 4334 
L 3438 4334 
L 3438 3553 
L 4888 3553 
L 4888 3241 
L 3438 3241 
L 3438 2978 
L 3625 3166 
Q 4469 2747 4938 2478 
L 4688 2197 
Q 4144 2534 3438 2878 
L 3438 2266 
L 3000 2266 
L 3000 3022 
Q 2425 2503 1700 2191 
Q 1594 2359 1400 2547 
z
M 1675 4097 
L 1931 4341 
Q 2281 4134 2638 3891 
L 2350 3591 
Q 2038 3878 1675 4097 
z
M 3788 3841 
Q 4131 4047 4469 4334 
L 4769 4078 
Q 4513 3891 4050 3591 
L 3788 3841 
z
" transform="scale(0.015625)"/>
      <path id="MicrosoftYaHei-5267" d="M 2738 3172 
L 2738 2559 
L 4050 2559 
L 4050 2122 
L 2738 2122 
L 2738 1459 
L 3738 1459 
L 3738 -741 
L 3300 -741 
L 3300 -403 
L 1738 -403 
L 1738 -741 
L 1300 -741 
L 1300 1459 
L 2288 1459 
L 2288 2122 
L 1059 2122 
Q 1016 203 406 -672 
Q 238 -434 81 -253 
Q 613 497 613 2491 
L 613 4966 
L 3788 4966 
L 3788 2997 
L 3338 2997 
L 3338 3297 
L 1063 3297 
L 1063 2559 
L 2288 2559 
L 2288 3172 
L 2738 3172 
z
M 5481 5222 
L 5931 5222 
L 5931 59 
Q 5931 -709 5206 -709 
Q 4963 -709 4369 -703 
Q 4331 -447 4275 -191 
Q 4788 -247 5056 -247 
Q 5481 -253 5481 209 
L 5481 5222 
z
M 3338 4528 
L 1063 4528 
L 1063 3734 
L 3338 3734 
L 3338 4528 
z
M 4331 4591 
L 4769 4591 
L 4769 647 
L 4331 647 
L 4331 4591 
z
M 3300 1022 
L 1738 1022 
L 1738 22 
L 3300 22 
L 3300 1022 
z
" transform="scale(0.015625)"/>
     </defs>
     <use xlink:href="#MicrosoftYaHei-7ca4"/>
     <use xlink:href="#MicrosoftYaHei-5267" transform="translate(100 0)"/>
    </g>
   </g>
   <g id="text_12">
    <!-- 铁桥 -->
    <g transform="translate(455.833737 516.57444) scale(0.08 -0.08)">
     <defs>
      <path id="MicrosoftYaHei-94c1" d="M 2506 2316 
L 4128 2316 
Q 4156 2700 4172 3578 
L 3188 3578 
Q 3038 3072 2881 2653 
Q 2581 2766 2394 2822 
Q 2806 3753 3006 4884 
L 3500 4784 
Q 3406 4384 3309 4022 
L 4178 4022 
Q 4184 4581 4188 5297 
L 4675 5297 
Q 4675 4581 4669 4022 
L 6081 4022 
L 6081 3578 
L 4666 3578 
Q 4653 2706 4628 2316 
L 6294 2316 
L 6294 1872 
L 4769 1872 
Q 5131 366 6331 -291 
Q 6325 -297 6306 -322 
Q 6063 -597 5969 -753 
Q 4847 -25 4447 1406 
Q 4103 9 2638 -853 
Q 2519 -672 2281 -409 
Q 3784 375 4066 1872 
L 2506 1872 
L 2506 2316 
z
M 2400 722 
Q 2400 447 2431 203 
Q 1775 -147 1431 -397 
Q 1313 -478 1150 -628 
L 838 -228 
Q 1038 -34 1038 266 
L 1038 1466 
L 219 1466 
L 219 1897 
L 1038 1897 
L 1038 2741 
L 563 2741 
L 563 3150 
Q 500 3047 438 2947 
Q 306 3166 150 3359 
Q 706 4216 1025 5334 
L 1500 5203 
Q 1359 4791 1197 4409 
L 2363 4409 
L 2363 3978 
L 1003 3978 
Q 803 3556 575 3172 
L 2225 3172 
L 2225 2741 
L 1525 2741 
L 1525 1897 
L 2356 1897 
L 2356 1466 
L 1525 1466 
L 1525 172 
Q 1888 384 2400 722 
z
" transform="scale(0.015625)"/>
      <path id="MicrosoftYaHei-6865" d="M 1888 1616 
Q 3144 2372 3525 3016 
L 2238 3016 
L 2238 3478 
L 3719 3478 
Q 3838 3884 3856 4491 
Q 3219 4459 2556 4434 
Q 2519 4647 2475 4878 
Q 4319 4947 5813 5053 
L 5894 4603 
Q 5131 4553 4325 4516 
Q 4300 3897 4200 3478 
L 6144 3478 
L 6144 3016 
L 4706 3016 
Q 5194 2141 6313 1772 
Q 6163 1541 6025 1322 
Q 4738 1859 4213 3016 
L 4038 3016 
Q 3650 2147 2213 1228 
Q 2056 1422 1888 1616 
z
M 88 1378 
Q 769 2434 1031 3678 
L 175 3678 
L 175 4103 
L 1088 4103 
L 1088 5259 
L 1550 5259 
L 1550 4103 
L 2225 4103 
L 2225 3678 
L 1550 3678 
L 1550 3016 
L 1725 3178 
Q 2013 2897 2419 2484 
L 2094 2178 
Q 1781 2553 1550 2803 
L 1550 -822 
L 1088 -822 
L 1088 2647 
Q 756 1478 288 828 
Q 206 1097 88 1378 
z
M 2956 559 
Q 3025 828 3019 1684 
L 3481 1684 
Q 3481 659 3381 341 
Q 3194 -422 2313 -897 
Q 2169 -697 2013 -522 
Q 2825 -78 2956 559 
z
M 4819 1684 
L 5281 1684 
L 5281 -816 
L 4819 -816 
L 4819 1684 
z
" transform="scale(0.015625)"/>
     </defs>
     <use xlink:href="#MicrosoftYaHei-94c1"/>
     <use xlink:href="#MicrosoftYaHei-6865" transform="translate(100 0)"/>
    </g>
   </g>
   <g id="text_13">
    <!-- 功夫 -->
    <g transform="translate(129.494703 444.151319) scale(0.08 -0.08)">
     <defs>
      <path id="MicrosoftYaHei-529f" d="M 2500 3978 
L 3475 3978 
Q 3488 4538 3494 5278 
L 4000 5278 
Q 3991 4531 3975 3978 
L 5969 3978 
Q 5913 1791 5844 291 
Q 5775 -691 4956 -709 
Q 4413 -716 3756 -684 
Q 3713 -397 3656 -122 
Q 4306 -197 4844 -191 
Q 5313 -178 5344 378 
Q 5425 1847 5450 3497 
L 3963 3497 
Q 3950 3003 3931 2734 
Q 3813 266 1938 -847 
Q 1800 -653 1575 -422 
Q 3325 553 3431 2772 
Q 3450 3063 3463 3497 
L 2500 3497 
L 2500 3978 
z
M 81 822 
Q 619 941 1119 1056 
L 1119 4134 
L 169 4134 
L 169 4622 
L 2675 4622 
L 2675 4134 
L 1625 4134 
L 1625 1178 
Q 2166 1313 2656 1447 
Q 2669 1122 2700 947 
Q 1594 672 225 291 
L 81 822 
z
" transform="scale(0.015625)"/>
      <path id="MicrosoftYaHei-592b" d="M 206 2541 
L 2881 2541 
Q 2903 2991 2913 3759 
L 594 3759 
L 594 4234 
L 2916 4234 
Q 2919 4716 2919 5297 
L 3456 5297 
Q 3456 4766 3450 4234 
L 5838 4234 
L 5838 3759 
L 3447 3759 
Q 3441 3150 3428 2541 
L 6206 2541 
L 6206 2066 
L 3538 2066 
Q 4188 366 6325 -241 
Q 6069 -584 5944 -753 
Q 3813 -31 3209 1750 
Q 2744 191 481 -847 
Q 381 -691 94 -366 
Q 2422 566 2813 2066 
L 206 2066 
L 206 2541 
z
" transform="scale(0.015625)"/>
     </defs>
     <use xlink:href="#MicrosoftYaHei-529f"/>
     <use xlink:href="#MicrosoftYaHei-592b" transform="translate(100 0)"/>
    </g>
   </g>
   <g id="text_14">
    <!-- 数十年 -->
    <g transform="translate(383.250629 66.299763) scale(0.08 -0.08)">
     <defs>
      <path id="MicrosoftYaHei-6570" d="M 4175 5303 
L 4675 5228 
Q 4544 4622 4369 4097 
L 6281 4097 
L 6281 3672 
L 5888 3672 
Q 5731 1834 5088 753 
Q 5594 66 6375 -372 
Q 6175 -647 6038 -866 
Q 5275 -372 4769 309 
Q 4194 -403 3400 -928 
Q 3263 -747 3044 -534 
Q 3919 41 4463 772 
Q 3956 1647 3794 2791 
Q 3663 2559 3519 2359 
Q 3394 2541 3206 2759 
Q 3931 3803 4175 5303 
z
M 150 1697 
L 1100 1697 
Q 1238 1934 1369 2184 
L 1819 2041 
Q 1719 1866 1619 1697 
L 3150 1697 
L 3150 1291 
Q 2913 678 2431 216 
Q 2775 53 3131 -109 
L 2856 -541 
Q 2469 -322 2050 -103 
Q 1344 -609 269 -903 
Q 169 -703 56 -466 
Q 969 -259 1600 128 
Q 1063 403 475 691 
Q 675 978 863 1284 
L 150 1284 
L 150 1697 
z
M 219 3847 
L 1656 3847 
L 1656 5247 
L 2119 5247 
L 2119 3847 
L 3319 3847 
L 3319 3434 
L 2119 3434 
L 2119 3053 
L 2306 3266 
Q 2888 2841 3281 2516 
L 2981 2166 
Q 2638 2491 2119 2897 
L 2119 2184 
L 1656 2184 
L 1656 3059 
Q 1088 2466 331 2016 
Q 213 2197 63 2397 
Q 850 2822 1506 3434 
L 219 3434 
L 219 3847 
z
M 5388 3672 
L 4219 3672 
Q 4188 3591 4150 3516 
Q 4263 2191 4775 1247 
Q 5275 2159 5388 3672 
z
M 1088 834 
Q 1531 634 2000 416 
Q 2431 784 2675 1284 
L 1375 1284 
Q 1231 1053 1088 834 
z
M 3038 5091 
L 3425 4834 
Q 3081 4384 2738 4003 
Q 2594 4128 2400 4266 
Q 2725 4647 3038 5091 
z
M 381 4816 
L 738 5059 
Q 1019 4716 1319 4322 
L 931 4047 
Q 656 4453 381 4816 
z
" transform="scale(0.015625)"/>
     </defs>
     <use xlink:href="#MicrosoftYaHei-6570"/>
     <use xlink:href="#MicrosoftYaHei-5341" transform="translate(100 0)"/>
     <use xlink:href="#MicrosoftYaHei-5e74" transform="translate(200 0)"/>
    </g>
   </g>
   <g id="text_15">
    <!-- 提督 -->
    <g transform="translate(49.98742 277.632654) scale(0.08 -0.08)">
     <defs>
      <path id="MicrosoftYaHei-63d0" d="M 2569 5041 
L 5688 5041 
L 5688 2572 
L 5238 2572 
L 5238 2753 
L 3019 2753 
L 3019 2572 
L 2569 2572 
L 2569 5041 
z
M 1594 -559 
Q 2475 178 2581 1553 
L 3050 1553 
Q 3019 1116 2922 734 
Q 3319 128 3956 -84 
L 3956 1797 
L 2025 1797 
L 2025 2209 
L 6238 2209 
L 6238 1797 
L 4425 1797 
L 4425 1097 
L 5994 1097 
L 5994 697 
L 4425 697 
L 4425 -184 
Q 4850 -234 6313 -178 
Q 6300 -209 6169 -641 
Q 5425 -659 4625 -622 
Q 3363 -606 2769 266 
Q 2506 -388 2006 -853 
Q 1819 -697 1594 -559 
z
M 81 2003 
Q 481 2175 888 2366 
L 888 3697 
L 131 3697 
L 131 4122 
L 888 4122 
L 888 5284 
L 1363 5284 
L 1363 4122 
L 2163 4122 
L 2163 3697 
L 1363 3697 
L 1363 2597 
Q 1722 2775 2081 2972 
Q 2100 2728 2131 2472 
Q 1747 2281 1363 2088 
L 1363 -91 
Q 1363 -697 900 -747 
Q 575 -778 169 -766 
Q 131 -503 88 -247 
Q 431 -284 675 -284 
Q 888 -284 888 -53 
L 888 1844 
Q 513 1650 144 1453 
L 81 2003 
z
M 3019 3153 
L 5238 3153 
L 5238 3703 
L 3019 3703 
L 3019 3153 
z
M 5238 4641 
L 3019 4641 
L 3019 4097 
L 5238 4097 
L 5238 4641 
z
" transform="scale(0.015625)"/>
      <path id="MicrosoftYaHei-7763" d="M 1025 2166 
L 5463 2166 
L 5463 -866 
L 5013 -866 
L 5013 -528 
L 1475 -528 
L 1475 -866 
L 1025 -866 
L 1025 2166 
z
M 3306 4503 
L 3306 4878 
L 5944 4878 
L 5944 4541 
Q 5575 3697 4944 3128 
Q 5494 2747 6331 2541 
Q 6181 2322 6088 2116 
Q 5175 2409 4594 2853 
Q 4094 2503 3444 2209 
Q 3350 2366 3175 2572 
Q 3794 2809 4275 3134 
Q 3738 3697 3475 4503 
L 3306 4503 
z
M 100 3997 
L 1350 3997 
L 1350 5309 
L 1788 5309 
L 1788 4816 
L 3063 4816 
L 3063 4453 
L 1788 4453 
L 1788 3997 
L 3400 3997 
L 3400 3634 
L 100 3634 
L 100 3997 
z
M 1475 -153 
L 5013 -153 
L 5013 266 
L 1475 266 
L 1475 -153 
z
M 5013 1791 
L 1475 1791 
L 1475 1378 
L 5013 1378 
L 5013 1791 
z
M 1475 616 
L 5013 616 
L 5013 1028 
L 1475 1028 
L 1475 616 
z
M 5438 4503 
L 3881 4503 
Q 4150 3822 4606 3391 
Q 5163 3872 5438 4503 
z
M 56 2541 
Q 519 2928 894 3372 
L 1231 3109 
Q 794 2634 344 2234 
Q 206 2403 56 2541 
z
M 2219 3041 
L 2463 3334 
Q 2838 3097 3213 2841 
L 2950 2509 
Q 2619 2772 2219 3041 
z
M 1569 3509 
L 2006 3509 
L 2006 2316 
L 1569 2316 
L 1569 3509 
z
" transform="scale(0.015625)"/>
     </defs>
     <use xlink:href="#MicrosoftYaHei-63d0"/>
     <use xlink:href="#MicrosoftYaHei-7763" transform="translate(100 0)"/>
    </g>
   </g>
   <g id="text_16">
    <!-- 江湖 -->
    <g transform="translate(402.155808 534.878864) scale(0.08 -0.08)">
     <defs>
      <path id="MicrosoftYaHei-6e56" d="M 4038 5003 
L 5863 5003 
L 5863 -109 
Q 5863 -697 5256 -697 
Q 4894 -697 4538 -678 
Q 4519 -497 4463 -203 
Q 4938 -247 5144 -247 
Q 5419 -247 5419 28 
L 5419 1447 
L 4431 1447 
Q 4388 216 3400 -834 
Q 3231 -666 3006 -491 
Q 3644 97 3844 747 
Q 4038 1334 4038 2753 
L 4038 5003 
z
M 1744 2603 
L 2425 2603 
L 2425 3628 
L 1563 3628 
L 1563 4053 
L 2425 4053 
L 2425 5303 
L 2881 5303 
L 2881 4053 
L 3750 4053 
L 3750 3628 
L 2881 3628 
L 2881 2603 
L 3525 2603 
L 3525 416 
L 2181 416 
L 2181 -22 
L 1744 -22 
L 1744 2603 
z
M 3088 828 
L 3088 2191 
L 2181 2191 
L 2181 828 
L 3088 828 
z
M 913 1772 
Q 1206 1616 1406 1541 
Q 1213 853 781 -766 
L 269 -528 
Q 663 553 913 1772 
z
M 4459 1834 
L 5419 1834 
L 5419 3022 
L 4481 3022 
Q 4488 2453 4459 1834 
z
M 5419 4597 
L 4481 4597 
L 4481 3409 
L 5419 3409 
L 5419 4597 
z
M 388 3572 
Q 875 3184 1406 2728 
Q 1169 2478 1038 2334 
Q 650 2716 75 3228 
L 388 3572 
z
M 675 5178 
Q 1188 4766 1650 4341 
Q 1444 4147 1281 3972 
Q 931 4359 356 4872 
L 675 5178 
z
" transform="scale(0.015625)"/>
     </defs>
     <use xlink:href="#MicrosoftYaHei-6c5f"/>
     <use xlink:href="#MicrosoftYaHei-6e56" transform="translate(100 0)"/>
    </g>
   </g>
   <g id="text_17">
    <!-- 佛山 -->
    <g transform="translate(568.179878 449.853316) scale(0.08 -0.08)">
     <defs>
      <path id="MicrosoftYaHei-4f5b" d="M 1831 4484 
L 2969 4484 
L 2969 5272 
L 3431 5272 
L 3431 4484 
L 4194 4484 
L 4194 5259 
L 4656 5259 
L 4656 4484 
L 5850 4484 
L 5850 2497 
L 5388 2497 
L 5388 2728 
L 4656 2728 
L 4656 1728 
L 6138 1728 
Q 6119 1103 6088 653 
Q 6038 -103 5381 -97 
Q 5088 -97 4906 -91 
Q 4863 122 4800 397 
Q 5019 366 5269 366 
Q 5594 359 5613 778 
Q 5625 916 5638 1303 
L 4656 1303 
L 4656 -778 
L 4194 -778 
L 4194 1303 
L 3331 1303 
Q 3175 3 2063 -853 
Q 1900 -641 1706 -466 
Q 2725 328 2853 1303 
L 1725 1303 
L 1725 1728 
L 1900 3153 
L 2969 3153 
L 2969 4059 
L 1831 4059 
L 1831 4484 
z
M 81 2291 
Q 913 3553 1381 5322 
L 1850 5203 
Q 1603 4388 1300 3669 
L 1300 -834 
L 856 -834 
L 856 2738 
Q 584 2228 275 1778 
Q 188 2041 81 2291 
z
M 3381 1728 
L 4194 1728 
L 4194 2728 
L 3428 2728 
Q 3419 2169 3381 1728 
z
M 3431 3153 
L 4194 3153 
L 4194 4059 
L 3431 4059 
L 3431 3153 
z
M 2213 1728 
L 2913 1728 
Q 2959 2156 2966 2728 
L 2325 2728 
L 2213 1728 
z
M 5388 4059 
L 4656 4059 
L 4656 3153 
L 5388 3153 
L 5388 4059 
z
" transform="scale(0.015625)"/>
     </defs>
     <use xlink:href="#MicrosoftYaHei-4f5b"/>
     <use xlink:href="#MicrosoftYaHei-5c71" transform="translate(100 0)"/>
    </g>
   </g>
   <g id="text_18">
    <!-- 一代 -->
    <g transform="translate(217.813665 60.469779) scale(0.08 -0.08)">
     <defs>
      <path id="MicrosoftYaHei-4e00" d="M 100 2703 
L 6313 2703 
L 6313 2153 
L 100 2153 
L 100 2703 
z
" transform="scale(0.015625)"/>
      <path id="MicrosoftYaHei-4ee3" d="M 1850 3141 
L 3328 3303 
Q 3253 4097 3225 5284 
L 3769 5284 
Q 3756 4350 3847 3359 
L 6138 3609 
L 6194 3147 
L 3897 2894 
Q 4250 306 5256 -209 
Q 5531 -322 5613 -28 
Q 5731 416 5813 978 
Q 6075 866 6313 797 
Q 6219 191 6088 -278 
Q 5919 -822 5419 -809 
Q 4881 -791 4394 -166 
Q 3669 678 3384 2838 
L 1925 2678 
L 1850 3141 
z
M 38 2322 
Q 1013 3634 1581 5322 
L 2081 5147 
Q 1803 4419 1500 3794 
L 1500 -841 
L 988 -841 
L 988 2834 
Q 631 2238 250 1759 
Q 163 2016 38 2322 
z
M 4344 4791 
L 4669 5122 
Q 5219 4703 5794 4191 
L 5413 3803 
Q 4888 4341 4344 4791 
z
" transform="scale(0.015625)"/>
     </defs>
     <use xlink:href="#MicrosoftYaHei-4e00"/>
     <use xlink:href="#MicrosoftYaHei-4ee3" transform="translate(100 0)"/>
    </g>
   </g>
   <g id="text_19">
    <!-- 醒狮 -->
    <g transform="translate(633.564067 166.731504) scale(0.08 -0.08)">
     <defs>
      <path id="MicrosoftYaHei-9192" d="M 325 3753 
L 1063 3753 
L 1063 4534 
L 175 4534 
L 175 4947 
L 2969 4947 
L 2969 4534 
L 2113 4534 
L 2113 3753 
L 2856 3753 
L 2856 -822 
L 2456 -822 
L 2456 -397 
L 725 -397 
L 725 -841 
L 325 -841 
L 325 3753 
z
M 3281 4997 
L 6025 4997 
L 6025 2678 
L 5600 2678 
L 5600 2897 
L 3281 2897 
L 3281 4997 
z
M 4400 2753 
L 4850 2753 
L 4850 2078 
L 6088 2078 
L 6088 1678 
L 4850 1678 
L 4850 941 
L 6038 941 
L 6038 553 
L 4850 553 
L 4850 -191 
L 6300 -191 
L 6300 -591 
L 2994 -591 
L 2994 -191 
L 4400 -191 
L 4400 553 
L 3244 553 
L 3244 941 
L 4400 941 
L 4400 1678 
L 3569 1678 
Q 3438 1328 3281 1047 
Q 3069 1184 2888 1253 
Q 3231 1784 3413 2709 
L 3838 2616 
Q 3769 2284 3706 2078 
L 4400 2078 
L 4400 2753 
z
M 944 1441 
Q 813 1622 725 1722 
L 725 1141 
L 2456 1141 
L 2456 1641 
L 2181 1641 
Q 1763 1641 1763 2066 
L 1763 3353 
L 1413 3353 
L 1413 2897 
Q 1413 2003 944 1441 
z
M 725 3 
L 2456 3 
L 2456 753 
L 725 753 
L 725 3 
z
M 3706 3272 
L 5600 3272 
L 5600 3778 
L 3706 3778 
L 3706 3272 
z
M 5600 4622 
L 3706 4622 
L 3706 4141 
L 5600 4141 
L 5600 4622 
z
M 2456 3353 
L 2113 3353 
L 2113 2203 
Q 2113 2016 2294 2016 
L 2456 2016 
L 2456 3353 
z
M 725 1859 
Q 1063 2266 1063 2872 
L 1063 3353 
L 725 3353 
L 725 1859 
z
M 1413 3753 
L 1763 3753 
L 1763 4534 
L 1413 4534 
L 1413 3753 
z
" transform="scale(0.015625)"/>
      <path id="MicrosoftYaHei-72ee" d="M 4113 91 
L 3694 91 
L 3694 3691 
L 4650 3691 
L 4650 4566 
L 3481 4566 
L 3481 4997 
L 6319 4997 
L 6319 4566 
L 5075 4566 
L 5075 3691 
L 6063 3691 
L 6063 822 
Q 6069 428 5894 309 
Q 5719 172 5200 191 
Q 5169 428 5100 672 
Q 5294 622 5438 628 
Q 5644 634 5644 909 
L 5644 3259 
L 5075 3259 
L 5075 -822 
L 4650 -822 
L 4650 3259 
L 4113 3259 
L 4113 91 
z
M 88 1384 
Q 750 1878 1219 2556 
Q 1163 2991 975 3584 
Q 700 3291 394 3034 
Q 281 3178 81 3353 
Q 466 3644 797 4009 
Q 531 4563 138 4972 
L 456 5216 
Q 834 4809 1091 4363 
Q 1394 4759 1644 5228 
L 2006 5003 
Q 1688 4431 1294 3947 
Q 1763 2828 1731 803 
Q 1725 -628 831 -622 
Q 538 -628 244 -597 
Q 219 -334 169 -59 
Q 525 -141 788 -134 
Q 1300 -128 1306 872 
Q 1316 1456 1281 1956 
Q 897 1453 400 1047 
Q 250 1247 88 1384 
z
M 2894 5266 
L 3300 5266 
L 3300 2741 
Q 3300 1247 3125 591 
Q 2950 -91 2369 -853 
Q 2188 -628 2044 -497 
Q 2550 122 2744 791 
Q 2894 1347 2894 2716 
L 2894 5266 
z
M 2081 4628 
L 2475 4628 
L 2475 828 
L 2081 828 
L 2081 4628 
z
" transform="scale(0.015625)"/>
     </defs>
     <use xlink:href="#MicrosoftYaHei-9192"/>
     <use xlink:href="#MicrosoftYaHei-72ee" transform="translate(100 0)"/>
    </g>
   </g>
   <g id="text_20">
    <!-- 武术 -->
    <g transform="translate(290.254019 531.069963) scale(0.08 -0.08)">
     <defs>
      <path id="MicrosoftYaHei-672f" d="M 6350 409 
Q 6125 153 5950 -91 
Q 4391 1013 3456 3025 
L 3456 -841 
L 2956 -841 
L 2956 3038 
Q 2081 1163 400 -172 
Q 256 28 38 303 
Q 1716 1519 2713 3353 
L 238 3353 
L 238 3816 
L 2956 3816 
L 2956 5328 
L 3456 5328 
L 3456 3816 
L 6188 3816 
L 6188 3353 
L 3684 3353 
Q 4725 1316 6350 409 
z
M 4069 4884 
L 4388 5234 
Q 4931 4866 5463 4416 
L 5113 4028 
Q 4594 4491 4069 4884 
z
" transform="scale(0.015625)"/>
     </defs>
     <use xlink:href="#MicrosoftYaHei-6b66"/>
     <use xlink:href="#MicrosoftYaHei-672f" transform="translate(100 0)"/>
    </g>
   </g>
   <g id="text_21">
    <!-- 先生 -->
    <g transform="translate(638.005374 298.974363) scale(0.08 -0.08)">
     <defs>
      <path id="MicrosoftYaHei-5148" d="M 225 2453 
L 2956 2453 
L 2956 3784 
L 1459 3784 
Q 1153 3166 800 2709 
Q 569 2891 394 2997 
Q 1094 3903 1481 5166 
L 1969 5028 
Q 1828 4613 1672 4247 
L 2956 4247 
L 2956 5309 
L 3469 5309 
L 3469 4247 
L 5788 4247 
L 5788 3784 
L 3469 3784 
L 3469 2453 
L 6219 2453 
L 6219 1991 
L 4206 1991 
L 4206 222 
Q 4169 -259 4638 -216 
L 5275 -216 
Q 5706 -216 5750 109 
Q 5794 428 5819 1022 
Q 6056 922 6344 834 
Q 6313 372 6231 -122 
Q 6169 -434 5956 -559 
Q 5769 -678 5281 -678 
L 4538 -678 
Q 3663 -716 3700 141 
L 3700 1991 
L 2478 1991 
Q 2428 909 2044 328 
Q 1581 -397 369 -847 
Q 244 -647 50 -397 
Q 1163 -16 1581 584 
Q 1925 1047 1978 1991 
L 225 1991 
L 225 2453 
z
" transform="scale(0.015625)"/>
      <path id="MicrosoftYaHei-751f" d="M 125 16 
L 3025 16 
L 3025 1609 
L 813 1609 
L 813 2091 
L 3025 2091 
L 3025 3534 
L 1375 3534 
Q 959 2784 419 2178 
Q 288 2384 81 2616 
Q 963 3603 1475 5028 
L 1988 4891 
Q 1822 4434 1622 4016 
L 3025 4016 
L 3025 5341 
L 3563 5341 
L 3563 4016 
L 5950 4016 
L 5950 3534 
L 3563 3534 
L 3563 2091 
L 5775 2091 
L 5775 1609 
L 3563 1609 
L 3563 16 
L 6288 16 
L 6288 -453 
L 125 -453 
L 125 16 
z
" transform="scale(0.015625)"/>
     </defs>
     <use xlink:href="#MicrosoftYaHei-5148"/>
     <use xlink:href="#MicrosoftYaHei-751f" transform="translate(100 0)"/>
    </g>
   </g>
   <g id="text_22">
    <!-- 一年 -->
    <g transform="translate(42.550205 320.841561) scale(0.08 -0.08)">
     <use xlink:href="#MicrosoftYaHei-4e00"/>
     <use xlink:href="#MicrosoftYaHei-5e74" transform="translate(100 0)"/>
    </g>
   </g>
   <g id="text_23">
    <!-- 武馆 -->
    <g transform="translate(72.355527 148.905511) scale(0.08 -0.08)">
     <defs>
      <path id="MicrosoftYaHei-9986" d="M 2750 3428 
L 5663 3428 
L 5663 1653 
L 5213 1653 
L 5213 1903 
L 3213 1903 
L 3213 1228 
L 5869 1228 
L 5869 -766 
L 5419 -766 
L 5419 -409 
L 3213 -409 
L 3213 -809 
L 2750 -809 
L 2750 3428 
z
M 2388 4503 
L 4166 4503 
Q 3934 4859 3688 5153 
L 4069 5384 
Q 4369 5047 4631 4672 
L 4353 4503 
L 6188 4503 
L 6188 3541 
L 5738 3541 
L 5738 4091 
L 2838 4091 
L 2838 3541 
L 2388 3541 
L 2388 4503 
z
M 44 2959 
Q 556 3841 819 5241 
L 1275 5134 
Q 1156 4641 1025 4203 
L 2213 4203 
L 2213 3809 
L 1850 2684 
Q 1606 2772 1438 2803 
L 1756 3778 
L 884 3778 
Q 644 3072 356 2541 
Q 219 2753 44 2959 
z
M 850 3159 
L 1288 3159 
L 1288 378 
Q 1650 703 2031 1072 
Q 2088 803 2150 553 
Q 1694 147 1294 -228 
Q 1181 -347 988 -559 
L 644 -147 
Q 850 22 850 353 
L 850 3159 
z
M 5419 828 
L 3213 828 
L 3213 -9 
L 5419 -9 
L 5419 828 
z
M 5213 3028 
L 3213 3028 
L 3213 2303 
L 5213 2303 
L 5213 3028 
z
" transform="scale(0.015625)"/>
     </defs>
     <use xlink:href="#MicrosoftYaHei-6b66"/>
     <use xlink:href="#MicrosoftYaHei-9986" transform="translate(100 0)"/>
    </g>
   </g>
   <g id="text_24">
    <!-- 南海 -->
    <g transform="translate(320.721253 74.820523) scale(0.08 -0.08)">
     <defs>
      <path id="MicrosoftYaHei-5357" d="M 163 4553 
L 2969 4553 
L 2969 5259 
L 3481 5259 
L 3481 4553 
L 6219 4553 
L 6219 4109 
L 3481 4109 
L 3481 3472 
L 5875 3472 
L 5875 -72 
Q 5875 -803 5150 -809 
Q 4738 -816 4119 -791 
Q 4081 -559 4025 -278 
Q 4644 -316 4969 -316 
Q 5381 -316 5381 47 
L 5381 3034 
L 1056 3034 
L 1056 -834 
L 563 -834 
L 563 3472 
L 2969 3472 
L 2969 4109 
L 163 4109 
L 163 4553 
z
M 1300 909 
L 2975 909 
L 2975 1591 
L 1500 1591 
L 1500 2003 
L 3463 2003 
Q 3763 2453 4069 2991 
L 4531 2734 
Q 4225 2316 3975 2003 
L 4938 2003 
L 4938 1591 
L 3463 1591 
L 3463 909 
L 5138 909 
L 5138 497 
L 3463 497 
L 3463 -703 
L 2975 -703 
L 2975 497 
L 1300 497 
L 1300 909 
z
M 1913 2741 
L 2281 2991 
Q 2600 2622 2863 2272 
L 2450 2016 
Q 2200 2378 1913 2741 
z
" transform="scale(0.015625)"/>
      <path id="MicrosoftYaHei-6d77" d="M 1475 2191 
L 2116 2191 
L 2338 3753 
L 5706 3753 
Q 5688 2884 5669 2191 
L 6325 2191 
L 6325 1753 
L 5653 1753 
Q 5634 1078 5616 603 
L 6125 603 
L 6125 178 
L 5588 178 
Q 5534 -281 5338 -509 
Q 5113 -766 4538 -766 
Q 4213 -766 3700 -741 
Q 3669 -528 3613 -234 
Q 4219 -291 4544 -291 
Q 5016 -291 5106 178 
L 1894 178 
L 1894 641 
L 2053 1753 
L 1475 1753 
L 1475 2191 
z
M 5184 1753 
L 2541 1753 
L 2388 603 
L 5141 603 
Q 5166 1116 5184 1753 
z
M 5225 3328 
L 2750 3328 
L 2597 2191 
L 5197 2191 
Q 5213 2722 5225 3328 
z
M 1425 3553 
Q 2200 4284 2675 5347 
L 3206 5347 
Q 3056 5022 2891 4728 
L 6194 4728 
L 6194 4291 
L 2628 4291 
Q 2225 3663 1744 3184 
Q 1600 3372 1425 3553 
z
M 275 -653 
Q 644 441 913 1741 
Q 1188 1622 1419 1547 
Q 1100 322 825 -822 
L 275 -653 
z
M 88 3253 
L 400 3609 
Q 975 3209 1469 2803 
Q 1244 2547 1106 2403 
Q 550 2903 88 3253 
z
M 325 4916 
L 644 5247 
Q 1019 4959 1688 4378 
Q 1475 4172 1319 4009 
Q 644 4653 325 4916 
z
M 3288 1372 
L 3575 1653 
Q 3994 1334 4356 1009 
L 4031 684 
Q 3663 1041 3288 1372 
z
M 3369 2972 
L 3650 3253 
Q 4050 2947 4438 2616 
L 4119 2291 
Q 3738 2666 3369 2972 
z
" transform="scale(0.015625)"/>
     </defs>
     <use xlink:href="#MicrosoftYaHei-5357"/>
     <use xlink:href="#MicrosoftYaHei-6d77" transform="translate(100 0)"/>
    </g>
   </g>
   <g id="text_25">
    <!-- 时代 -->
    <g transform="translate(559.162259 196.570378) scale(0.08 -0.08)">
     <defs>
      <path id="MicrosoftYaHei-65f6" d="M 344 4728 
L 2500 4728 
L 2500 -366 
L 2006 -366 
L 2006 153 
L 838 153 
L 838 -441 
L 344 -441 
L 344 4728 
z
M 2706 3941 
L 4925 3941 
L 4925 5322 
L 5425 5322 
L 5425 3941 
L 6313 3941 
L 6313 3478 
L 5425 3478 
L 5425 116 
Q 5425 -722 4625 -722 
Q 4263 -722 3563 -703 
Q 3531 -478 3463 -178 
Q 4119 -228 4488 -228 
Q 4925 -228 4925 216 
L 4925 3478 
L 2706 3478 
L 2706 3941 
z
M 838 616 
L 2006 616 
L 2006 2234 
L 838 2234 
L 838 616 
z
M 2006 4266 
L 838 4266 
L 838 2684 
L 2006 2684 
L 2006 4266 
z
M 3406 2878 
Q 3906 1966 4163 1422 
Q 4000 1347 3663 1172 
Q 3419 1766 2963 2653 
L 3406 2878 
z
" transform="scale(0.015625)"/>
     </defs>
     <use xlink:href="#MicrosoftYaHei-65f6"/>
     <use xlink:href="#MicrosoftYaHei-4ee3" transform="translate(100 0)"/>
    </g>
   </g>
   <g id="text_26">
    <!-- 岭南 -->
    <g transform="translate(347.837599 525.55897) scale(0.08 -0.08)">
     <defs>
      <path id="MicrosoftYaHei-5cad" d="M 1981 22 
L 1981 297 
L 331 228 
L 331 4078 
L 763 4078 
L 763 641 
L 1156 659 
L 1156 5272 
L 1588 5272 
L 1588 678 
L 1981 697 
L 1981 4078 
L 2413 4078 
L 2413 2959 
Q 3550 3866 4150 5284 
L 4650 5284 
Q 4606 5184 4563 5103 
Q 5244 3703 6369 3016 
Q 6200 2816 6050 2553 
Q 4994 3334 4338 4616 
Q 3719 3428 2694 2534 
Q 2588 2684 2413 2897 
L 2413 22 
L 1981 22 
z
M 2925 616 
L 3213 959 
Q 3625 697 4100 378 
Q 4756 1041 5275 1647 
L 2738 1647 
L 2738 2097 
L 5881 2097 
L 5881 1634 
Q 5188 841 4494 116 
Q 4881 -147 5306 -453 
L 4963 -878 
Q 3994 -103 2925 616 
z
M 3850 3247 
L 4256 3503 
Q 4594 3066 4881 2634 
L 4450 2353 
Q 4156 2847 3850 3247 
z
" transform="scale(0.015625)"/>
     </defs>
     <use xlink:href="#MicrosoftYaHei-5cad"/>
     <use xlink:href="#MicrosoftYaHei-5357" transform="translate(100 0)"/>
    </g>
   </g>
   <g id="text_27">
    <!-- 广州 -->
    <g transform="translate(665.854545 248.46756) scale(0.08 -0.08)">
     <defs>
      <path id="MicrosoftYaHei-5dde" d="M 5288 5228 
L 5781 5228 
L 5781 -759 
L 5288 -759 
L 5288 5228 
z
M 3300 5109 
L 3794 5109 
L 3794 -641 
L 3300 -641 
L 3300 5109 
z
M 1319 5203 
L 1813 5203 
L 1813 2653 
Q 1813 316 600 -797 
Q 444 -616 225 -403 
Q 1325 578 1319 2816 
L 1319 5203 
z
M 575 3559 
L 1038 3447 
Q 813 2453 538 1678 
Q 294 1772 88 1834 
Q 381 2647 575 3559 
z
M 2019 3353 
L 2450 3528 
Q 2794 2722 3050 2066 
L 2581 1866 
Q 2344 2578 2019 3353 
z
M 3988 3341 
L 4419 3528 
Q 4763 2759 5044 2047 
L 4588 1847 
Q 4331 2584 3988 3341 
z
" transform="scale(0.015625)"/>
     </defs>
     <use xlink:href="#MicrosoftYaHei-5e7f"/>
     <use xlink:href="#MicrosoftYaHei-5dde" transform="translate(100 0)"/>
    </g>
   </g>
   <g id="text_28">
    <!-- 书馆 -->
    <g transform="translate(557.550856 94.907778) scale(0.08 -0.08)">
     <defs>
      <path id="MicrosoftYaHei-4e66" d="M 175 2416 
L 2525 2416 
L 2525 3747 
L 581 3747 
L 581 4209 
L 2525 4209 
L 2525 5284 
L 3044 5284 
L 3044 4209 
L 5200 4209 
L 5084 2416 
L 5944 2416 
Q 5931 1722 5900 984 
Q 5863 -47 4925 -34 
Q 4438 -41 3875 9 
Q 3844 297 3781 559 
Q 4356 453 4863 453 
Q 5381 441 5406 1022 
Q 5425 1466 5431 1953 
L 3044 1953 
L 3044 -809 
L 2525 -809 
L 2525 1953 
L 175 1953 
L 175 2416 
z
M 4669 3747 
L 3044 3747 
L 3044 2416 
L 4581 2416 
L 4669 3747 
z
M 4513 4922 
L 4819 5272 
Q 5481 4828 6006 4434 
L 5675 4041 
Q 5188 4453 4513 4922 
z
" transform="scale(0.015625)"/>
     </defs>
     <use xlink:href="#MicrosoftYaHei-4e66"/>
     <use xlink:href="#MicrosoftYaHei-9986" transform="translate(100 0)"/>
    </g>
   </g>
   <g id="text_29">
    <!-- 西樵山 -->
    <g transform="translate(445.784752 63.691284) scale(0.08 -0.08)">
     <defs>
      <path id="MicrosoftYaHei-897f" d="M 175 4916 
L 6250 4916 
L 6250 4466 
L 4231 4466 
L 4231 3541 
L 6000 3541 
L 6000 -847 
L 5500 -847 
L 5500 -459 
L 1050 -459 
L 1050 -847 
L 550 -847 
L 550 3541 
L 2256 3541 
Q 2269 3984 2275 4466 
L 175 4466 
L 175 4916 
z
M 4531 1528 
L 5500 1528 
L 5500 3091 
L 4231 3091 
L 4231 1841 
Q 4231 1528 4531 1528 
z
M 2756 3541 
L 3738 3541 
L 3738 4466 
L 2769 4466 
Q 2763 3966 2756 3541 
z
M 5500 -9 
L 5500 1078 
L 4344 1078 
Q 3738 1078 3738 1766 
L 3738 3091 
L 2738 3091 
Q 2675 1628 1525 778 
Q 1369 972 1150 1178 
Q 2163 1841 2238 3091 
L 1050 3091 
L 1050 -9 
L 5500 -9 
z
" transform="scale(0.015625)"/>
     </defs>
     <use xlink:href="#MicrosoftYaHei-897f"/>
     <use xlink:href="#MicrosoftYaHei-6a35" transform="translate(100 0)"/>
     <use xlink:href="#MicrosoftYaHei-5c71" transform="translate(200 0)"/>
    </g>
   </g>
   <g id="text_30">
    <!-- 龙狮 -->
    <g transform="translate(75.633303 425.945335) scale(0.08 -0.08)">
     <defs>
      <path id="MicrosoftYaHei-9f99" d="M 1838 222 
Q 2606 597 3250 1038 
L 3250 3603 
L 2566 3603 
Q 2463 2175 2163 1341 
Q 1688 -16 438 -866 
Q 294 -653 38 -422 
Q 1231 341 1644 1547 
Q 1919 2297 2022 3603 
L 188 3603 
L 188 4078 
L 2050 4078 
Q 2081 4650 2081 5316 
L 2619 5316 
Q 2619 4653 2591 4078 
L 6213 4078 
L 6213 3603 
L 3775 3603 
L 3775 1431 
Q 4741 2209 5363 3172 
L 5813 2872 
Q 5016 1678 3775 753 
L 3775 384 
Q 3775 -166 4250 -166 
L 5006 -166 
Q 5556 -166 5631 284 
Q 5688 609 5750 1228 
Q 6013 1122 6288 1028 
Q 6188 372 6113 47 
Q 5938 -653 5119 -653 
L 4131 -653 
Q 3250 -653 3250 253 
L 3250 388 
Q 2738 53 2163 -241 
Q 2050 -9 1838 222 
z
M 3838 4972 
L 4144 5322 
Q 4744 4947 5194 4559 
L 4838 4159 
Q 4400 4559 3838 4972 
z
" transform="scale(0.015625)"/>
     </defs>
     <use xlink:href="#MicrosoftYaHei-9f99"/>
     <use xlink:href="#MicrosoftYaHei-72ee" transform="translate(100 0)"/>
    </g>
   </g>
   <g id="text_31">
    <!-- 青年 -->
    <g transform="translate(45.062129 371.895794) scale(0.08 -0.08)">
     <defs>
      <path id="MicrosoftYaHei-9752" d="M 1469 -784 
L 975 -784 
L 975 2384 
L 5431 2384 
L 5431 -91 
Q 5431 -747 4656 -741 
Q 4200 -741 3713 -734 
Q 3688 -534 3619 -253 
Q 4119 -291 4588 -291 
Q 4931 -291 4931 -3 
L 4931 347 
L 1469 347 
L 1469 -784 
z
M 200 3166 
L 2963 3166 
L 2963 3591 
L 650 3591 
L 650 3984 
L 2963 3984 
L 2963 4403 
L 325 4403 
L 325 4803 
L 2963 4803 
L 2963 5359 
L 3463 5359 
L 3463 4803 
L 6075 4803 
L 6075 4403 
L 3463 4403 
L 3463 3984 
L 5625 3984 
L 5625 3591 
L 3463 3591 
L 3463 3166 
L 6200 3166 
L 6200 2766 
L 200 2766 
L 200 3166 
z
M 4931 1984 
L 1469 1984 
L 1469 1553 
L 4931 1553 
L 4931 1984 
z
M 1469 734 
L 4931 734 
L 4931 1166 
L 1469 1166 
L 1469 734 
z
" transform="scale(0.015625)"/>
     </defs>
     <use xlink:href="#MicrosoftYaHei-9752"/>
     <use xlink:href="#MicrosoftYaHei-5e74" transform="translate(100 0)"/>
    </g>
   </g>
   <g id="text_32">
    <!-- 设馆 -->
    <g transform="translate(249.111182 506.832417) scale(0.08 -0.08)">
     <defs>
      <path id="MicrosoftYaHei-8bbe" d="M 2231 2116 
L 2231 2547 
L 5638 2547 
L 5638 2116 
Q 5144 1031 4419 416 
Q 5216 -109 6338 -316 
Q 6119 -597 5956 -822 
Q 4841 -500 4013 113 
Q 3163 -463 1863 -872 
Q 1700 -641 1538 -422 
Q 2778 -88 3613 431 
Q 2888 1131 2559 2116 
L 2231 2116 
z
M 4856 4553 
L 3294 4553 
L 3294 4372 
Q 3294 3222 2244 2659 
Q 2075 2866 1881 3047 
Q 2806 3522 2806 4359 
L 2806 5016 
L 5344 5016 
L 5344 3741 
Q 5344 3459 5631 3459 
L 6319 3459 
Q 6288 3203 6269 2997 
L 5444 2997 
Q 4856 2997 4856 3647 
L 4856 4553 
z
M 2250 1028 
Q 2263 734 2294 472 
Q 1438 -84 1019 -422 
L 719 -9 
Q 931 197 931 553 
L 931 2778 
L 138 2778 
L 138 3228 
L 1406 3228 
L 1406 453 
Q 1813 722 2250 1028 
z
M 988 5128 
Q 1469 4653 1906 4166 
L 1469 3803 
Q 1013 4391 613 4803 
L 988 5128 
z
M 3031 2116 
Q 3347 1319 4022 713 
Q 4684 1225 5081 2116 
L 3031 2116 
z
" transform="scale(0.015625)"/>
     </defs>
     <use xlink:href="#MicrosoftYaHei-8bbe"/>
     <use xlink:href="#MicrosoftYaHei-9986" transform="translate(100 0)"/>
    </g>
   </g>
   <g id="text_33">
    <!-- 陆正刚 -->
    <g transform="translate(645.048346 341.169707) scale(0.08 -0.08)">
     <defs>
      <path id="MicrosoftYaHei-9646" d="M 5519 -803 
L 5519 -478 
L 2650 -478 
L 2650 1672 
L 3125 1672 
L 3125 -34 
L 4069 -34 
L 4069 2272 
L 2300 2272 
L 2300 2716 
L 4069 2716 
L 4069 3859 
L 2525 3859 
L 2525 4303 
L 4069 4303 
L 4069 5253 
L 4556 5253 
L 4556 4303 
L 6144 4303 
L 6144 3859 
L 4556 3859 
L 4556 2716 
L 6313 2716 
L 6313 2272 
L 4556 2272 
L 4556 -34 
L 5519 -34 
L 5519 1672 
L 5994 1672 
L 5994 -803 
L 5519 -803 
z
M 2219 1509 
Q 2400 322 1625 172 
Q 1350 109 1006 159 
Q 956 416 869 669 
L 869 -841 
L 400 -841 
L 400 4909 
L 2200 4909 
L 2200 4472 
Q 1775 3072 1663 2734 
Q 2150 2072 2219 1509 
z
M 1444 641 
Q 1869 703 1731 1528 
Q 1644 2034 1169 2653 
Q 1450 3578 1681 4472 
L 869 4472 
L 869 684 
Q 1200 603 1444 641 
z
" transform="scale(0.015625)"/>
      <path id="MicrosoftYaHei-6b63" d="M 88 66 
L 1106 66 
L 1106 3416 
L 1644 3416 
L 1644 66 
L 3231 66 
L 3231 4309 
L 375 4309 
L 375 4797 
L 6063 4797 
L 6063 4309 
L 3769 4309 
L 3769 2672 
L 5850 2672 
L 5850 2191 
L 3769 2191 
L 3769 66 
L 6313 66 
L 6313 -422 
L 88 -422 
L 88 66 
z
" transform="scale(0.015625)"/>
      <path id="MicrosoftYaHei-521a" d="M 863 -766 
L 388 -766 
L 388 4922 
L 3769 4922 
L 3769 -9 
Q 3769 -716 3100 -716 
Q 2769 -716 2175 -709 
Q 2144 -516 2081 -228 
Q 2638 -266 2925 -266 
Q 3294 -266 3294 66 
L 3294 4497 
L 863 4497 
L 863 -766 
z
M 5538 5272 
L 6025 5272 
L 6025 28 
Q 6025 -766 5269 -766 
Q 5013 -766 4400 -759 
Q 4363 -509 4300 -216 
Q 4800 -259 5088 -266 
Q 5538 -278 5538 172 
L 5538 5272 
z
M 956 3772 
L 1319 3959 
Q 1725 3259 2081 2631 
Q 2425 3331 2656 4009 
L 3088 3853 
Q 2734 2966 2334 2178 
Q 2791 1369 3150 697 
L 2731 466 
Q 2434 1044 2081 1703 
Q 1709 1028 1300 434 
L 925 666 
Q 1441 1425 1838 2159 
Q 1431 2916 956 3772 
z
M 4400 4597 
L 4875 4597 
L 4875 647 
L 4400 647 
L 4400 4597 
z
" transform="scale(0.015625)"/>
     </defs>
     <use xlink:href="#MicrosoftYaHei-9646"/>
     <use xlink:href="#MicrosoftYaHei-6b63" transform="translate(100 0)"/>
     <use xlink:href="#MicrosoftYaHei-521a" transform="translate(200 0)"/>
    </g>
   </g>
   <g id="text_34">
    <!-- 黄麒英 -->
    <g transform="translate(120.761091 154.226036) scale(0.08 -0.08)">
     <defs>
      <path id="MicrosoftYaHei-9e92" d="M 3388 1078 
L 3863 1078 
L 3863 4016 
L 3475 4016 
L 3475 4453 
L 3863 4453 
L 3863 5284 
L 4275 5284 
L 4275 4453 
L 5400 4453 
L 5400 5284 
L 5813 5284 
L 5813 4453 
L 6238 4453 
L 6238 4016 
L 5813 4016 
L 5813 1078 
L 6325 1078 
L 6325 641 
L 3388 641 
L 3388 1078 
z
M 2000 5341 
Q 2169 4966 2275 4678 
L 3375 4678 
L 3375 4278 
L 2575 4278 
L 2575 3572 
L 3413 3572 
L 3413 1791 
L 3038 1791 
L 3038 2009 
L 894 2009 
Q 900 441 388 -778 
Q 375 -766 50 -434 
Q 513 541 506 2797 
L 506 4678 
L 1806 4678 
Q 1706 4947 1581 5203 
L 2000 5341 
z
M 3406 222 
Q 3394 9 3406 -247 
Q 2894 -441 2456 -703 
L 2219 -278 
Q 2381 -141 2381 159 
L 2381 1797 
L 2769 1797 
L 2769 1259 
L 3275 1259 
L 3275 884 
L 2769 884 
L 2769 -72 
Q 2988 3 3406 222 
z
M 2150 203 
Q 2138 -47 2150 -234 
Q 1631 -484 1288 -691 
L 1050 -284 
Q 1213 -122 1213 153 
L 1213 1784 
L 1600 1784 
L 1600 1247 
L 2138 1247 
L 2138 872 
L 1600 872 
L 1600 -78 
Q 1813 16 2150 203 
z
M 4275 1078 
L 5400 1078 
L 5400 1778 
L 4275 1778 
L 4275 1078 
z
M 4275 3322 
L 5400 3322 
L 5400 4016 
L 4275 4016 
L 4275 3322 
z
M 4275 2203 
L 5400 2203 
L 5400 2897 
L 4275 2897 
L 4275 2203 
z
M 4313 466 
L 4663 178 
Q 4044 -522 3650 -866 
Q 3500 -697 3325 -522 
Q 3888 -78 4313 466 
z
M 5025 159 
L 5338 428 
Q 5869 -47 6294 -534 
L 5963 -847 
Q 5513 -297 5025 159 
z
M 3038 2384 
L 3038 3197 
L 2575 3197 
L 2575 2384 
L 3038 2384 
z
M 1738 2384 
L 2200 2384 
L 2200 3197 
L 1738 3197 
L 1738 2384 
z
M 906 2384 
L 1363 2384 
L 1363 3197 
L 906 3197 
L 906 2778 
L 906 2384 
z
M 1738 3572 
L 2200 3572 
L 2200 4278 
L 1738 4278 
L 1738 3572 
z
M 906 4278 
L 906 3572 
L 1363 3572 
L 1363 4278 
L 906 4278 
z
" transform="scale(0.015625)"/>
      <path id="MicrosoftYaHei-82f1" d="M 144 1572 
L 931 1572 
L 931 3222 
L 2966 3222 
Q 2966 3513 2963 3834 
L 3463 3834 
Q 3463 3513 3459 3222 
L 5469 3222 
L 5469 1572 
L 6281 1572 
L 6281 1134 
L 3572 1134 
Q 4300 -91 6319 -278 
Q 6106 -553 5956 -784 
Q 3847 -363 3209 963 
Q 2734 -159 444 -878 
Q 300 -672 88 -422 
Q 2288 150 2797 1134 
L 144 1134 
L 144 1572 
z
M 175 4591 
L 1813 4591 
L 1813 5328 
L 2300 5328 
L 2300 4591 
L 4113 4591 
L 4113 5328 
L 4600 5328 
L 4600 4591 
L 6250 4591 
L 6250 4153 
L 4600 4153 
L 4600 3584 
L 4113 3584 
L 4113 4153 
L 2300 4153 
L 2300 3584 
L 1813 3584 
L 1813 4153 
L 175 4153 
L 175 4591 
z
M 2963 2797 
L 1419 2797 
L 1419 1572 
L 2934 1572 
Q 2956 2069 2963 2797 
z
M 3431 1572 
L 4981 1572 
L 4981 2797 
L 3456 2797 
Q 3450 2072 3431 1572 
z
" transform="scale(0.015625)"/>
     </defs>
     <use xlink:href="#MicrosoftYaHei-9ec4"/>
     <use xlink:href="#MicrosoftYaHei-9e92" transform="translate(100 0)"/>
     <use xlink:href="#MicrosoftYaHei-82f1" transform="translate(200 0)"/>
    </g>
   </g>
   <g id="text_35">
    <!-- 套路 -->
    <g transform="translate(176.51144 89.674236) scale(0.08 -0.08)">
     <defs>
      <path id="MicrosoftYaHei-5957" d="M 4494 603 
Q 5181 -22 5675 -541 
L 5275 -859 
Q 5084 -634 4894 -422 
Q 3122 -478 1550 -572 
Q 1381 -578 981 -622 
L 819 -153 
Q 1081 -72 1313 84 
Q 1588 291 1944 622 
L 225 622 
L 225 1034 
L 1450 1034 
L 1450 3175 
Q 944 2884 319 2603 
Q 200 2797 25 3034 
Q 1438 3528 2100 4209 
L 313 4209 
L 313 4622 
L 2450 4622 
Q 2694 4966 2831 5359 
L 3331 5247 
Q 3200 4916 3022 4622 
L 6100 4622 
L 6100 4209 
L 4344 4209 
Q 5144 3406 6375 3216 
Q 6175 2934 6044 2709 
Q 5256 2953 4675 3356 
L 4675 3097 
L 1900 3097 
L 1900 2678 
L 5150 2678 
L 5150 2278 
L 1900 2278 
L 1900 1859 
L 5188 1859 
L 5188 1459 
L 1900 1459 
L 1900 1034 
L 6188 1034 
L 6188 622 
L 2613 622 
Q 2134 200 1681 -134 
Q 3313 -100 4534 -38 
Q 4344 153 4156 334 
L 4494 603 
z
M 1963 3497 
L 4488 3497 
Q 4091 3809 3800 4209 
L 2728 4209 
Q 2403 3809 1963 3497 
z
" transform="scale(0.015625)"/>
      <path id="MicrosoftYaHei-8def" d="M 481 2416 
L 894 2416 
L 894 106 
Q 1147 144 1413 184 
L 1413 3041 
L 913 3041 
L 913 2834 
L 463 2834 
L 463 4953 
L 2513 4953 
L 2513 3041 
L 1850 3041 
L 1850 1984 
L 2500 1984 
L 2500 1559 
L 1850 1559 
L 1850 250 
Q 2241 313 2650 384 
Q 2638 172 2638 -72 
Q 1419 -278 225 -484 
L 100 3 
Q 288 25 481 50 
L 481 2416 
z
M 2575 3428 
Q 3231 4234 3713 5359 
L 4175 5191 
Q 4041 4909 3906 4653 
L 5881 4653 
L 5881 4234 
Q 5472 3463 4797 2809 
Q 5413 2388 6313 2178 
Q 6188 1903 6106 1659 
Q 5125 1994 4441 2500 
Q 3759 1972 2788 1559 
Q 2725 1684 2538 2003 
Q 3384 2306 4072 2816 
Q 3694 3191 3391 3756 
Q 3138 3366 2888 3059 
Q 2738 3259 2575 3428 
z
M 3038 1584 
L 5756 1584 
L 5756 -847 
L 5288 -847 
L 5288 -547 
L 3506 -547 
L 3506 -847 
L 3038 -847 
L 3038 1584 
z
M 5288 1147 
L 3506 1147 
L 3506 -109 
L 5288 -109 
L 5288 1147 
z
M 2063 3466 
L 2063 4528 
L 913 4528 
L 913 3466 
L 2063 3466 
z
M 5344 4228 
L 3675 4228 
Q 3656 4197 3638 4166 
Q 3953 3531 4425 3103 
Q 4988 3606 5344 4228 
z
" transform="scale(0.015625)"/>
     </defs>
     <use xlink:href="#MicrosoftYaHei-5957"/>
     <use xlink:href="#MicrosoftYaHei-8def" transform="translate(100 0)"/>
    </g>
   </g>
   <g id="text_36">
    <!-- 狮艺 -->
    <g transform="translate(284.450113 46.806136) scale(0.08 -0.08)">
     <use xlink:href="#MicrosoftYaHei-72ee"/>
     <use xlink:href="#MicrosoftYaHei-827a" transform="translate(100 0)"/>
    </g>
   </g>
   <g id="text_37">
    <!-- 林世荣 -->
    <g transform="translate(606.162164 422.805167) scale(0.08 -0.08)">
     <defs>
      <path id="MicrosoftYaHei-6797" d="M 2831 3997 
L 4038 3997 
L 4038 5259 
L 4519 5259 
L 4519 3997 
L 6081 3997 
L 6081 3553 
L 4581 3553 
Q 5188 1759 6356 622 
Q 6125 409 5938 178 
Q 5088 1203 4519 2853 
L 4519 -828 
L 4038 -828 
L 4038 2859 
Q 3406 1191 2525 147 
Q 2338 322 2113 503 
Q 3275 1728 3963 3553 
L 2831 3553 
L 2831 3997 
z
M 88 1216 
Q 781 2316 1138 3578 
L 175 3578 
L 175 4016 
L 1181 4016 
L 1181 5259 
L 1656 5259 
L 1656 4016 
L 2550 4016 
L 2550 3578 
L 1656 3578 
L 1656 2828 
L 1850 3009 
Q 2444 2422 2850 1947 
L 2494 1628 
Q 2188 2022 1656 2609 
L 1656 -828 
L 1181 -828 
L 1181 2609 
Q 831 1447 319 622 
Q 244 847 88 1216 
z
" transform="scale(0.015625)"/>
      <path id="MicrosoftYaHei-4e16" d="M 2681 5241 
L 3169 5241 
L 3169 3697 
L 4825 3697 
L 4825 5241 
L 5313 5241 
L 5313 3697 
L 6225 3697 
L 6225 3222 
L 5313 3222 
L 5313 722 
L 4825 722 
L 4825 1128 
L 3169 1128 
L 3169 678 
L 2681 678 
L 2681 3222 
L 1488 3222 
L 1488 -91 
L 6075 -91 
L 6075 -566 
L 988 -566 
L 988 3222 
L 169 3222 
L 169 3697 
L 988 3697 
L 988 4959 
L 1488 4959 
L 1488 3697 
L 2681 3697 
L 2681 5241 
z
M 3169 1591 
L 4825 1591 
L 4825 3222 
L 3169 3222 
L 3169 1591 
z
" transform="scale(0.015625)"/>
      <path id="MicrosoftYaHei-8363" d="M 6313 -103 
Q 6075 -359 5925 -578 
Q 4381 53 3444 1228 
L 3444 -809 
L 2956 -809 
L 2956 1241 
Q 2025 97 450 -653 
Q 306 -466 88 -228 
Q 1638 372 2606 1472 
L 450 1472 
L 450 1909 
L 2956 1909 
L 2956 2716 
L 3444 2716 
L 3444 1909 
L 5963 1909 
L 5963 1472 
L 3738 1472 
Q 4738 316 6313 -103 
z
M 3938 5241 
L 4413 5241 
L 4413 4653 
L 6000 4653 
L 6000 4209 
L 4413 4209 
L 4413 3609 
L 3938 3609 
L 3938 4209 
L 2463 4209 
L 2463 3609 
L 1988 3609 
L 1988 4209 
L 438 4209 
L 438 4653 
L 1988 4653 
L 1988 5241 
L 2463 5241 
L 2463 4653 
L 3938 4653 
L 3938 5241 
z
M 350 3434 
L 6063 3434 
L 6063 2278 
L 5563 2278 
L 5563 2991 
L 850 2991 
L 850 2278 
L 350 2278 
L 350 3434 
z
" transform="scale(0.015625)"/>
     </defs>
     <use xlink:href="#MicrosoftYaHei-6797"/>
     <use xlink:href="#MicrosoftYaHei-4e16" transform="translate(100 0)"/>
     <use xlink:href="#MicrosoftYaHei-8363" transform="translate(200 0)"/>
    </g>
   </g>
   <g id="text_38">
    <!-- 七年 -->
    <g transform="translate(30.945455 241.963503) scale(0.08 -0.08)">
     <defs>
      <path id="MicrosoftYaHei-4e03" d="M 163 2909 
L 2313 3144 
L 2313 5272 
L 2875 5272 
L 2875 3206 
L 6181 3572 
L 6225 3066 
L 2875 2688 
L 2875 459 
Q 2875 -116 3506 -116 
L 4738 -116 
Q 5406 -116 5475 278 
Q 5556 716 5613 1266 
Q 5850 1159 6156 1053 
Q 6056 403 5956 9 
Q 5788 -641 4919 -641 
L 3369 -641 
Q 2313 -641 2313 334 
L 2313 2625 
L 213 2391 
L 163 2909 
z
" transform="scale(0.015625)"/>
     </defs>
     <use xlink:href="#MicrosoftYaHei-4e03"/>
     <use xlink:href="#MicrosoftYaHei-5e74" transform="translate(100 0)"/>
    </g>
   </g>
   <g id="text_39">
    <!-- 年代 -->
    <g transform="translate(574.585774 138.933098) scale(0.08 -0.08)">
     <use xlink:href="#MicrosoftYaHei-5e74"/>
     <use xlink:href="#MicrosoftYaHei-4ee3" transform="translate(100 0)"/>
    </g>
   </g>
   <g id="text_40">
    <!-- 武术馆 -->
    <g transform="translate(536.228516 493.662214) scale(0.08 -0.08)">
     <use xlink:href="#MicrosoftYaHei-6b66"/>
     <use xlink:href="#MicrosoftYaHei-672f" transform="translate(100 0)"/>
     <use xlink:href="#MicrosoftYaHei-9986" transform="translate(200 0)"/>
    </g>
   </g>
  </g>
 </g>
 <defs>
  <clipPath id="pba18c56152">
   <rect x="7.2" y="24.39125" width="698.4" height="536.88"/>
  </clipPath>
 </defs>
</svg>
